<svg xmlns="http://www.w3.org/2000/svg" version="1.1" xmlns:xlink="http://www.w3.org/1999/xlink" width="512" height="512" x="0" y="0" viewBox="0 0 64 64" style="enable-background:new 0 0 512 512" xml:space="preserve" class=""><g><g data-name="Layer 2"><path fill="#8a8a8a" d="M35.93 10.06A3 3 0 0 0 33.64 9h-3.28a3 3 0 0 0-3 3.49l1 5.67a1 1 0 0 0 1 .84h5.34a1 1 0 0 0 1-.84l1-5.67a3 3 0 0 0-.77-2.43z" opacity="1" data-original="#8a8a8a" class=""></path><path fill="#bcbcbc" d="M32 17A25 25 0 0 0 7 42v5a1 1 0 0 0 1 1h48a1 1 0 0 0 1-1v-5a25 25 0 0 0-25-25z" opacity="1" data-original="#bcbcbc"></path><path fill="#aaaaaa" d="M35.68 17.27A27.52 27.52 0 0 1 50 41.4v5.5a1.1 1.1 0 0 1-1.1 1.1H56a1 1 0 0 0 1-1v-5a25 25 0 0 0-21.32-24.73z" opacity="1" data-original="#aaaaaa"></path><path fill="#ffffff" d="M12.25 39.82h-.16a1 1 0 0 1-.83-1.14A21 21 0 0 1 21 24.14a1 1 0 1 1 1 1.7A19 19 0 0 0 13.24 39a1 1 0 0 1-.99.82z" opacity="1" data-original="#ffffff"></path><path fill="#8a8a8a" d="M60 46H4a1 1 0 0 0-1 1v2.5a1 1 0 0 0 .47.85l4 2.5A1 1 0 0 0 8 53h48a1 1 0 0 0 .53-.15l4-2.5a1 1 0 0 0 .47-.85V47a1 1 0 0 0-1-1z" opacity="1" data-original="#8a8a8a" class=""></path><path fill="#919191" d="M40.22 18.4A11 11 0 0 0 55.6 33.78 25.07 25.07 0 0 0 40.22 18.4z" opacity="1" data-original="#919191"></path><circle cx="49" cy="25" r="9" fill="#4abeff" opacity="1" data-original="#00b13b" class=""></circle><path fill="#ffffff" d="M50 24v-3h-2v3h-3v2h3v3h2v-3h3v-2z" opacity="1" data-original="#ffffff"></path></g></g></svg>