<svg xmlns="http://www.w3.org/2000/svg" version="1.1" xmlns:xlink="http://www.w3.org/1999/xlink" width="512" height="512" x="0" y="0" viewBox="0 0 512 512" style="enable-background:new 0 0 512 512" xml:space="preserve" class=""><g><path d="M256 234.483 0 263.523v67.391l256 35.736 256-35.736v-67.391z" style="" fill="#70a6ed" data-original="#ef4644" class="" opacity="1"></path><path d="M41.207 330.914v-67.391l235.397-26.703L256 234.483 0 263.523v67.391l256 35.736 20.604-2.877z" style="opacity:0.1;enable-background:new ;" fill="#000000" opacity="1" data-original="#000000"></path><path d="M294.299 50.021c-6.178-.38-12.164 1.83-16.881 5.839-5.372 4.567-12.979 7.417-21.418 7.417s-16.046-2.851-21.418-7.417c-4.716-4.008-10.703-6.219-16.881-5.839-82.539 5.082-144.447 26.251-144.447 51.598v109.648c0 12.822 10.393 23.215 23.215 23.215h319.063c12.822 0 23.215-10.394 23.215-23.215V101.619c-.001-25.346-61.909-46.516-144.448-51.598z" style="" fill="#794e3f" data-original="#794e3f" class=""></path><path d="M90.942 39.778H67.477a9.396 9.396 0 0 0-9.396 9.396v193.729h42.258V49.175a9.397 9.397 0 0 0-9.397-9.397zM444.523 39.778h-23.465a9.396 9.396 0 0 0-9.396 9.396v193.729h42.258V49.175c-.001-5.19-4.207-9.397-9.397-9.397zM23.952 357.593H66.21v114.628H23.952zM445.79 357.593h42.258v114.628H445.79z" style="" fill="#5d3a30" data-original="#5d3a30"></path><path d="M236.526 148.646c-2.597-8.696-9.873-15.16-18.788-16.858-14.163-2.697-33.522-4.36-54.87-4.36s-40.707 1.662-54.869 4.36c-8.915 1.698-16.19 8.162-18.788 16.858-3.01 10.076-4.976 25.142.564 43.226 2.659 8.679 9.87 15.207 18.793 16.872 14.11 2.634 33.238 4.253 54.3 4.253 21.063 0 40.19-1.618 54.3-4.253 8.922-1.666 16.135-8.193 18.793-16.872 5.542-18.085 3.576-33.15.565-43.226z" style="" fill="#f2f2f2" data-original="#f2f2f2"></path><path d="M139.475 208.744c-8.922-1.666-16.135-8.193-18.794-16.872-5.54-18.084-3.574-33.149-.564-43.225 2.597-8.695 9.873-15.16 18.788-16.858 10.653-2.029 24.248-3.472 39.417-4.062a396.844 396.844 0 0 0-15.453-.298c-21.347 0-40.707 1.663-54.869 4.36-8.914 1.698-16.19 8.162-18.788 16.858-3.01 10.076-4.976 25.142.564 43.225 2.659 8.679 9.87 15.207 18.794 16.872 14.11 2.634 33.238 4.252 54.301 4.252 5.289 0 10.456-.102 15.453-.297-14.901-.58-28.282-1.983-38.849-3.955z" style="opacity:0.1;enable-background:new ;" fill="#000000" opacity="1" data-original="#000000"></path><path d="M275.474 148.646c2.597-8.696 9.873-15.16 18.788-16.858 14.163-2.697 33.522-4.36 54.87-4.36 21.347 0 40.707 1.662 54.869 4.36 8.915 1.698 16.19 8.162 18.788 16.858 3.01 10.076 4.976 25.142-.564 43.226-2.659 8.679-9.87 15.207-18.793 16.872-14.11 2.634-33.238 4.253-54.301 4.253-21.063 0-40.19-1.618-54.3-4.253-8.922-1.666-16.135-8.193-18.793-16.872-5.541-18.085-3.575-33.15-.564-43.226z" style="" fill="#f2f2f2" data-original="#f2f2f2"></path><path d="M325.736 208.744c-8.922-1.666-16.135-8.193-18.794-16.872-5.54-18.084-3.574-33.149-.564-43.225 2.597-8.696 9.873-15.16 18.788-16.858 10.653-2.029 24.248-3.472 39.417-4.062a396.844 396.844 0 0 0-15.453-.298c-21.347 0-40.707 1.663-54.87 4.36-8.915 1.698-16.19 8.162-18.788 16.858-3.01 10.076-4.976 25.142.564 43.225 2.659 8.679 9.87 15.207 18.794 16.872 14.11 2.634 33.238 4.252 54.3 4.252 5.289 0 10.456-.102 15.453-.297-14.899-.58-28.28-1.983-38.847-3.955z" style="opacity:0.1;enable-background:new ;" fill="#000000" opacity="1" data-original="#000000"></path><path d="M453.919 205.443H58.081C26.004 205.443 0 231.446 0 263.523h512c0-32.077-26.004-58.08-58.081-58.08z" style="" fill="#d9d9d9" data-original="#d9d9d9"></path><path d="M99.288 205.443H58.081C26.004 205.443 0 231.446 0 263.523h41.207c0-32.077 26.004-58.08 58.081-58.08z" style="opacity:0.1;enable-background:new ;" fill="#000000" opacity="1" data-original="#000000"></path><path d="M0 330.912h512v71.474H0z" style="" fill="#794e3f" data-original="#794e3f" class=""></path><path d="M0 330.912h41.207v71.474H0z" style="opacity:0.1;enable-background:new ;" fill="#000000" opacity="1" data-original="#000000"></path></g></svg>