<svg xmlns="http://www.w3.org/2000/svg" version="1.1" xmlns:xlink="http://www.w3.org/1999/xlink" width="512" height="512" x="0" y="0" viewBox="0 0 512 512" style="enable-background:new 0 0 512 512" xml:space="preserve" class=""><g><path fill="#ffa100" d="M472 216.354A23.905 23.905 0 0 1 448 240H296v-24l32-10.67 16-5.33 5.224-26.12a32 32 0 0 1 14.915-21.163L376 145.6l23.27-13.96L424 144l22.466 11.233a32 32 0 0 1 14.305 14.3l.499.997A101.743 101.743 0 0 1 472 216.354z" opacity="1" data-original="#ffa100" class=""></path><path fill="#e67a00" d="M424 144v62l-40 10v24h-8v-94.4l23.27-13.96z" opacity="1" data-original="#e67a00" class=""></path><path fill="#b1712c" d="M363.416 136A19.416 19.416 0 0 1 344 116.584a19.416 19.416 0 0 1 2.05-8.684L352 96l-.006-9.405A46.566 46.566 0 0 1 398.56 40h1.205A48.054 48.054 0 0 1 448 88.009V96l5.949 11.895a19.419 19.419 0 0 1 2.051 8.686A19.419 19.419 0 0 1 436.581 136z" opacity="1" data-original="#b1712c"></path><path fill="#91591c" d="M232 488h256V280H224z" opacity="1" data-original="#91591c" class=""></path><path fill="#b1712c" d="M224 240h264v40H224z" opacity="1" data-original="#b1712c"></path><path fill="#ffa100" d="M48 496a8 8 0 0 1-8-8v-16a8 8 0 0 1 16 0v16a8 8 0 0 1-8 8zM104 496a8 8 0 0 1-8-8v-16a8 8 0 0 1 16 0v16a8 8 0 0 1-8 8z" opacity="1" data-original="#ffa100" class=""></path><path fill="#84cd41" d="M144 248h88V141.255a32 32 0 0 0-9.373-22.628L200 96h-32l-26.658 26.658a32 32 0 0 0-7.73 12.509L112 200z" opacity="1" data-original="#6173e8" class=""></path><path fill="#ffceb6" d="M208 56v24a24 24 0 0 1-24 24 24 24 0 0 1-24-24V56z" opacity="1" data-original="#ffceb6" class=""></path><path fill="#b1712c" d="M160 56h48V42.422A18.422 18.422 0 0 0 189.578 24a18.422 18.422 0 0 0-10.219 3.094L160 40z" opacity="1" data-original="#b1712c"></path><path fill="#ffceb6" d="m168 192-8 16v80h-24l-24-88 8-24zM232 192l48 48-16 16-32-16z" opacity="1" data-original="#ffceb6" class=""></path><path fill="#556c80" d="M201.764 381.436 160 488h-24l16-104v-96h48z" opacity="1" data-original="#556c80" class=""></path><path fill="#ffc431" d="M24 344h104v128H24z" opacity="1" data-original="#ffc431" class=""></path><path fill="#ffa100" d="M104 368H88v-64H64v64H48v-72a8 8 0 0 1 8-8h40a8 8 0 0 1 8 8z" opacity="1" data-original="#ffa100" class=""></path><path fill="#ffceb6" d="m376 88 16-16 16 16h16v24a24 24 0 0 1-24 24 24 24 0 0 1-24-24zM328 205.33V240h-32v-24z" opacity="1" data-original="#ffceb6" class=""></path><g fill="#b1712c"><path d="M360 440h16v16h-16zM392 440h64v16h-64zM408 408h48v16h-48z" fill="#b1712c" opacity="1" data-original="#b1712c"></path></g><path fill="#62798c" d="m232 248 16 240h-24l-64-200v-40z" opacity="1" data-original="#62798c" class=""></path><path fill="#ffceb6" d="M416 208v32h-32v-24z" opacity="1" data-original="#ffceb6" class=""></path></g></svg>