<svg id="Capa_1" enable-background="new 0 0 512 512" height="512" viewBox="0 0 512 512" width="512" xmlns="http://www.w3.org/2000/svg"><g><path d="m429.419 55h-346.838l-8.258 130.806v123.872h363.354v-123.872z" fill="#ffd064"/><path d="m354.93 61.935c-16.491 39.431-55.473 66.065-98.93 66.065s-82.439-26.634-98.93-66.065h-66.231v214.71h330.323v-214.71z" fill="#ffe07d"/><path d="m432.702 46.097-28.057 11.903v86.516c0 10.397 4.895 20.188 13.213 26.426l19.819 14.865v-132.13c0-3.394-2.048-6.31-4.975-7.58z" fill="#ff7d91"/><path d="m79.299 46.097c-2.928 1.269-4.977 4.186-4.977 7.581v132.129l19.819-14.865c8.318-6.238 13.213-16.029 13.213-26.426v-92.578z" fill="#ff7d91"/><path d="m429.419 45.421h-86.089l-22.516 22.428c12.68 6.765 27.154 10.602 42.542 10.602 27.855 0 52.707-12.605 69.346-32.354-1.007-.437-2.115-.676-3.283-.676z" fill="#e15f78"/><path d="m168.67 45.421h-86.089c-1.168 0-2.275.239-3.282.676 16.639 19.749 41.491 32.355 69.346 32.355 16.662 0 32.253-4.5 45.654-12.343z" fill="#e15f78"/><g fill="#ff9a9f"><path d="m330.323 251.871h-41.29c-9.121 0-16.516 7.394-16.516 16.516v90.839h74.323v-90.839c-.001-9.122-7.396-16.516-16.517-16.516z"/><path d="m437.677 251.871h-41.29c-9.121 0-16.516 7.394-16.516 16.516v90.839h74.323v-90.839c0-9.122-7.396-16.516-16.517-16.516z"/><path d="m503.742 251.871c-9.122 0-16.516 7.395-16.516 16.516v44.613l24.774-19.839v-33.032c0-4.561-3.697-8.258-8.258-8.258z"/><path d="m181.677 251.871h41.29c9.121 0 16.516 7.394 16.516 16.516v90.839h-74.323v-90.839c.001-9.122 7.396-16.516 16.517-16.516z"/></g><path d="m280.774 293.161h-49.548l-8.339 16.516v97.871h74.403v-97.871c0-9.122-7.394-16.516-16.516-16.516z" fill="#ff7d91"/><path d="m231.226 392.258v-99.097c-9.121 0-16.516 7.394-16.516 16.516v123.871h82.581v-41.29z" fill="#e15f78"/><path d="m74.323 251.871h41.29c9.121 0 16.516 7.394 16.516 16.516v90.839h-74.323v-90.839c0-9.122 7.396-16.516 16.517-16.516z" fill="#ff9a9f"/><path d="m165.161 293.161h-49.548l-8.339 16.516v97.871h74.403v-97.871c0-9.122-7.394-16.516-16.516-16.516z" fill="#ff7d91"/><path d="m115.613 392.258v-99.097c-9.121 0-16.516 7.394-16.516 16.516v123.871h82.581v-41.29z" fill="#e15f78"/><path d="m8.258 251.871c9.122 0 16.516 7.395 16.516 16.516v36.113l-24.774-11.339v-33.032c0-4.561 3.697-8.258 8.258-8.258z" fill="#ff9a9f"/><path d="m396.387 293.161h-49.548l-8.339 16.516v97.871h74.403v-97.871c0-9.122-7.394-16.516-16.516-16.516z" fill="#ff7d91"/><path d="m346.839 392.258v-99.097c-9.121 0-16.516 7.394-16.516 16.516v123.871h82.581v-41.29z" fill="#e15f78"/><path d="m512 293.161h-49.548l-6.452 16.516v123.871h39.484c9.122 0 16.516-7.395 16.516-16.516z" fill="#ff7d91"/><path d="m0 293.161h49.548c9.122 0 16.516 7.395 16.516 16.516v123.871h-49.548c-9.121 0-16.516-7.394-16.516-16.516z" fill="#ff7d91"/><path d="m487.226 392.258h-24.774v-99.097c-9.121 0-16.516 7.394-16.516 16.516v123.871h41.29z" fill="#e15f78"/><path d="m24.774 392.258h41.29v41.29h-41.29z" fill="#e15f78"/><path d="m41.29 425.29h429.419v16.516h-429.419z" fill="#ff9a9f"/><path d="m99.097 342.71h-57.807l-8.806 16.516v90.839h66.613c9.122 0 16.516-7.395 16.516-16.516v-74.323c0-9.122-7.395-16.516-16.516-16.516z" fill="#ff7d91"/><path d="m41.29 417.032v-74.322c-9.121 0-16.516 7.394-16.516 16.516v90.839l16.516 8.602h57.806l16.516-8.602v-16.516h-57.806c-9.121-.001-16.516-7.395-16.516-16.517z" fill="#e15f78"/><path d="m168.67 45.419c10.795 38.111 45.762 66.065 87.33 66.065s76.535-27.954 87.33-66.065h-35.161l-52.169 10.831-52.169-10.831z" fill="#ff7d91"/><path d="m203.831 45.419c9.284 19.512 29.122 33.032 52.169 33.032s42.885-13.52 52.169-33.032z" fill="#e15f78"/><path d="m99.097 466.581h-57.807c-9.122 0-16.516-7.395-16.516-16.516h90.839c0 9.121-7.395 16.516-16.516 16.516z" fill="#db4655"/><path d="m222.968 342.71h-57.806l-8.806 16.516v90.839h66.613c9.122 0 16.516-7.395 16.516-16.516v-74.323c-.001-9.122-7.396-16.516-16.517-16.516z" fill="#ff7d91"/><path d="m165.161 417.032v-74.322c-9.121 0-16.516 7.394-16.516 16.516v90.839l16.516 8.602h57.806l16.516-8.602v-16.516h-57.806c-9.121-.001-16.516-7.395-16.516-16.517z" fill="#e15f78"/><path d="m222.968 466.581h-57.806c-9.122 0-16.516-7.395-16.516-16.516h90.839c-.001 9.121-7.396 16.516-16.517 16.516z" fill="#db4655"/><path d="m346.839 342.71h-57.806l-8.806 16.516v90.839h66.613c9.122 0 16.516-7.395 16.516-16.516v-74.323c-.001-9.122-7.396-16.516-16.517-16.516z" fill="#ff7d91"/><path d="m289.032 417.032v-74.322c-9.121 0-16.516 7.394-16.516 16.516v90.839l16.516 8.602h57.806l16.516-8.602v-16.516h-57.806c-9.121-.001-16.516-7.395-16.516-16.517z" fill="#e15f78"/><path d="m346.839 466.581h-57.806c-9.122 0-16.516-7.395-16.516-16.516h90.839c-.001 9.121-7.396 16.516-16.517 16.516z" fill="#db4655"/><path d="m470.71 342.71h-57.806l-8.806 16.516v90.839h66.613c9.122 0 16.516-7.395 16.516-16.516v-74.323c-.001-9.122-7.396-16.516-16.517-16.516z" fill="#ff7d91"/><path d="m412.903 417.032v-74.322c-9.121 0-16.516 7.394-16.516 16.516v90.839l16.516 8.602h57.806l16.516-8.602v-16.516h-57.806c-9.121-.001-16.516-7.395-16.516-16.517z" fill="#e15f78"/><path d="m470.71 466.581h-57.806c-9.122 0-16.516-7.395-16.516-16.516h90.839c-.001 9.121-7.396 16.516-16.517 16.516z" fill="#db4655"/></g></svg>