<?xml version="1.0" encoding="UTF-8"?>
<svg xmlns="http://www.w3.org/2000/svg" viewBox="0 0 256 256" width="512" height="512"><path d="M221.94,131H34.06a3,3,0,0,1,0-6H221.94a3,3,0,0,1,0,6Z" fill="#d1d3d4"/><path d="M174.974,212.356a3,3,0,0,1-2.6-1.5L78.432,48.145a3,3,0,1,1,5.195-3l93.941,162.71a3,3,0,0,1-2.594,4.5Z" fill="#d1d3d4"/><path d="M81.026,212.356a3,3,0,0,1-2.594-4.5l93.941-162.71a3,3,0,1,1,5.2,3L83.627,210.855A3,3,0,0,1,81.026,212.356Z" fill="#d1d3d4"/><circle cx="221.941" cy="128" r="23.592" transform="translate(46.373 314.595) rotate(-76.717)" fill="#478cf7"/><circle cx="34.059" cy="128" r="23.592" transform="translate(-28.497 11.249) rotate(-13.283)" fill="#58595b"/><circle cx="174.97" cy="46.645" r="23.592" transform="translate(-6.036 41.448) rotate(-13.283)" fill="#76a34f"/><circle cx="81.03" cy="46.645" r="23.592" transform="translate(-9.25 70.959) rotate(-45)" fill="#8c3f0a"/><circle cx="174.97" cy="209.355" r="23.592" transform="translate(-43.419 45.8) rotate(-13.283)" fill="#a54af4"/><circle cx="81.03" cy="209.355" r="23.592" transform="translate(-124.303 118.615) rotate(-45)" fill="#e63950"/><path d="M48.054,109.005A23.594,23.594,0,0,1,15.064,142a23.594,23.594,0,1,0,32.99-32.99Z" fill="#414042"/><path d="M95.024,190.36a23.594,23.594,0,0,1-32.989,32.99,23.593,23.593,0,1,0,32.989-32.99Z" fill="#d10028"/><path d="M193.563,41.645A23.594,23.594,0,0,1,155.976,60.64a23.593,23.593,0,1,0,32.989-32.99A23.484,23.484,0,0,1,193.563,41.645Z" fill="#648940"/><path d="M235.936,109.005A23.594,23.594,0,0,1,202.946,142a23.594,23.594,0,1,0,32.99-32.99Z" fill="#377de2"/><path d="M188.965,190.36a23.594,23.594,0,0,1-32.989,32.99,23.593,23.593,0,1,0,32.989-32.99Z" fill="#893add"/><path d="M95.024,27.65A23.594,23.594,0,0,1,62.035,60.64,23.593,23.593,0,1,0,95.024,27.65Z" fill="#7c3108"/><path d="M78.524,57.154a4.024,4.024,0,0,1-2.852-1.181L67.73,48.031a4.033,4.033,0,1,1,5.7-5.7l5.09,5.09,10.1-10.1a4.033,4.033,0,0,1,5.7,5.7L81.376,55.973A4.024,4.024,0,0,1,78.524,57.154Z" fill="#fff"/><path d="M31.553,138.435a4.02,4.02,0,0,1-2.851-1.181l-7.942-7.942a4.033,4.033,0,1,1,5.7-5.7l5.09,5.091,10.1-10.1a4.033,4.033,0,1,1,5.7,5.7L34.405,137.254A4.02,4.02,0,0,1,31.553,138.435Z" fill="#fff"/><path d="M219.435,138.435a4.024,4.024,0,0,1-2.852-1.181l-7.942-7.942a4.033,4.033,0,0,1,5.7-5.7l5.09,5.091,10.1-10.1a4.033,4.033,0,1,1,5.7,5.7l-12.953,12.953A4.024,4.024,0,0,1,219.435,138.435Z" fill="#fff"/><path d="M172.465,57.154a4.022,4.022,0,0,1-2.852-1.181l-7.942-7.942a4.033,4.033,0,1,1,5.7-5.7l5.091,5.09,10.1-10.1a4.033,4.033,0,0,1,5.7,5.7L175.316,55.973A4.02,4.02,0,0,1,172.465,57.154Z" fill="#fff"/><path d="M78.524,219.865a4.024,4.024,0,0,1-2.852-1.181l-7.942-7.943a4.033,4.033,0,1,1,5.7-5.7l5.09,5.091,10.1-10.1a4.033,4.033,0,1,1,5.7,5.7L81.376,218.684A4.024,4.024,0,0,1,78.524,219.865Z" fill="#fff"/><path d="M172.465,219.865a4.022,4.022,0,0,1-2.852-1.181l-7.942-7.943a4.033,4.033,0,1,1,5.7-5.7l5.091,5.091,10.1-10.1a4.033,4.033,0,1,1,5.7,5.7l-12.954,12.954A4.02,4.02,0,0,1,172.465,219.865Z" fill="#fff"/><path d="M187.571,128c0,5.975-9.108,10.436-10.858,15.828-1.815,5.587,2.873,14.539-.516,19.189-3.42,4.7-13.4,2.992-18.1,6.41-4.651,3.386-6.1,13.425-11.683,15.239-5.391,1.75-12.436-5.465-18.415-5.465s-13.02,7.215-18.415,5.465c-5.587-1.814-7.032-11.853-11.683-15.239-4.7-3.418-14.681-1.713-18.1-6.41-3.385-4.65,1.3-13.6-.516-19.189-1.75-5.392-10.858-9.853-10.858-15.828s9.108-10.437,10.858-15.828c1.815-5.587-2.873-14.539.516-19.189,3.42-4.7,13.4-2.993,18.1-6.41,4.651-3.386,6.1-13.425,11.683-15.239C114.976,69.584,122.021,76.8,128,76.8s13.02-7.216,18.415-5.466C152,73.148,153.447,83.187,158.1,86.573c4.7,3.417,14.681,1.713,18.1,6.41,3.385,4.65-1.3,13.6.516,19.189C178.463,117.563,187.571,122.025,187.571,128Z" fill="#ffa91a"/><path d="M101.43,166.569a1.949,1.949,0,0,1-1.17-.38c-3.967-2.994-10.283-2.882-15.27-4.33a3.021,3.021,0,0,1-2.16-1.579c-.73-2.285.013-4.827.25-7.03,2.439-13.092-1.958-14.223-9.8-23.11a3.354,3.354,0,0,1-.841-2.3,2.8,2.8,0,0,1,.831-1.97c3.139-4.21,8.374-7.715,9.82-12.46,1.669-5.087-.487-10.694-.56-15.95A3.55,3.55,0,0,1,83.35,95a4.023,4.023,0,0,1,1.66-.86c11.159-2.644,15.911-1.063,21.37-12.85.72-1.363,2.62-5.076,4.03-5.971a1.844,1.844,0,0,1,1.01-.259c2.2.166,4.2,1.414,6.11,2.3,3.63,1.847,7,3.448,10.42,3.441a17.809,17.809,0,0,0,7.47-1.95,2.025,2.025,0,0,1,2.71,2.52,2,2,0,0,1-1.05,1.12A22.173,22.173,0,0,1,128,84.8c-4.773-.034-8.7-2.1-12.09-3.77a38.386,38.386,0,0,0-3.82-1.77c-3.018,4.747-4.327,9.9-9.481,13.78-4.948,3.443-9.695,3.422-14.779,4.5a12.589,12.589,0,0,0-1.3.319,42.555,42.555,0,0,0,.539,4.491c2.2,12.387-1.15,16.216-9.279,24.32A15.264,15.264,0,0,0,76.67,128c8.378,9.26,12.827,11.62,10.39,25.72a40.193,40.193,0,0,0-.53,4.429c5.474,1.409,10.76,1.078,16.079,4.8a2.092,2.092,0,0,1,.8,1.31A2.011,2.011,0,0,1,101.43,166.569Z" fill="#ffc91d"/><circle cx="143.499" cy="77.292" r="1.999" fill="#ffc91d"/><path d="M176.713,143.828c1.75-5.392,10.858-9.853,10.858-15.828s-9.108-10.437-10.858-15.828c-1.815-5.587,2.869-14.539-.516-19.189-1.747-2.4-5.21-3.129-8.8-3.723-.333,4.337-1.847,9.319-.68,12.912,1.75,5.391,10.858,9.853,10.858,15.828s-9.108,10.436-10.858,15.828c-1.815,5.587,2.873,14.539-.516,19.189-3.42,4.7-13.4,2.992-18.1,6.41-4.651,3.386-6.1,13.425-11.683,15.239-5.391,1.75-12.436-5.465-18.415-5.465-5.13,0-11.039,5.3-16.022,5.7,2.126,4.017,4.007,8.6,7.607,9.765,5.4,1.75,12.436-5.465,18.415-5.465s13.024,7.215,18.415,5.465c5.587-1.814,7.032-11.853,11.683-15.239,4.7-3.418,14.679-1.708,18.1-6.41C179.586,158.367,174.9,149.415,176.713,143.828Z" fill="#f79219"/><path d="M176.713,143.828c1.75-5.392,10.858-9.853,10.858-15.828s-9.108-10.437-10.858-15.828c-1.815-5.587,2.869-14.539-.516-19.189a7.851,7.851,0,0,0-3.987-2.626c1.093,4.9-2.039,12.069-.5,16.815,1.75,5.391,10.858,9.853,10.858,15.828s-9.108,10.436-10.858,15.828c-1.815,5.587,2.873,14.539-.516,19.189-3.42,4.7-13.4,2.992-18.1,6.41-4.651,3.386-6.1,13.425-11.683,15.239-5.391,1.75-12.436-5.465-18.415-5.465s-13.02,7.215-18.415,5.465c-.038-.012-.071-.033-.108-.046,1.361,2.348,2.914,4.334,5.108,5.046,5.4,1.75,12.436-5.465,18.415-5.465s13.024,7.215,18.415,5.465c5.587-1.814,7.032-11.853,11.683-15.239,4.7-3.418,14.679-1.708,18.1-6.41C179.586,158.367,174.9,149.415,176.713,143.828Z" fill="#ef7816"/><path d="M160.073,128.581a3.056,3.056,0,0,1-2.172-.9L127.992,97.773,98.084,127.682a3.072,3.072,0,0,1-4.344-4.344l32.08-32.081a3.072,3.072,0,0,1,4.345,0l32.08,32.081a3.072,3.072,0,0,1-2.172,5.245Z" fill="#8c3f0a"/><path d="M153.41,156.629V123.191L127.992,97.773l-25.417,25.418v33.438a1.671,1.671,0,0,0,1.67,1.671h47.494A1.671,1.671,0,0,0,153.41,156.629Z" fill="#fff"/><rect x="120.3" y="108.181" width="6.387" height="6.387" rx="0.575" fill="#ef7816"/><rect x="129.313" y="108.181" width="6.387" height="6.387" rx="0.575" fill="#ef7816"/><rect x="120.3" y="117.007" width="6.387" height="6.387" rx="0.575" fill="#ef7816"/><rect x="129.313" y="117.007" width="6.387" height="6.387" rx="0.575" fill="#ef7816"/><path d="M109.178,128.036h15.054a1.335,1.335,0,0,1,1.335,1.335V158.3a0,0,0,0,1,0,0H107.844a0,0,0,0,1,0,0V129.371A1.335,1.335,0,0,1,109.178,128.036Z" fill="#8c3f0a"/><rect x="117.759" y="141.732" width="5.082" height="2.116" rx="1.058" fill="#ef7816"/><rect x="130.74" y="128.036" width="17.417" height="13.696" rx="1.309" fill="#ef7816"/></svg>
