<svg id="Layer_1" enable-background="new 0 0 512 512" viewBox="0 0 512 512" xmlns="http://www.w3.org/2000/svg"><g><path d="m496.484 170.495v279.451h-480.968v-279.451c0-25.613 20.761-46.364 46.364-46.364h388.24c25.603 0 46.364 20.75 46.364 46.364z" fill="#625ac5"/><path d="m177.573 124.131v325.814h-162.057v-279.45c0-25.613 20.761-46.364 46.364-46.364z" fill="#5149bf"/><path d="m465.451 170.608v302.612h-418.902v-46.55l46.539-271.516h356.909c8.541 0 15.454 6.923 15.454 15.454z" fill="#c2eafb"/><path d="m177.573 155.154v318.066h-131.024v-302.612c0-8.531 6.913-15.455 15.455-15.455h115.569z" fill="#91d4f2"/><path d="m418.912 54.184v403.509h-325.824v-31.023l31.033-186.187-31.033-116.352v-69.947c0-17.073 13.837-30.909 30.909-30.909h264.006c17.072-.001 30.909 13.836 30.909 30.909z" fill="#f3f5fc"/><path d="m202.95 23.274c-15.053 7.655-25.376 23.295-25.376 41.356v393.062h-84.486v-403.508c0-17.073 13.837-30.909 30.909-30.909h78.953z" fill="#e8ecf9"/><path d="m341.394 271.515h-31.091l-31.03-124.122h62.121c8.535 0 15.455 6.919 15.455 15.455v93.212c0 8.536-6.919 15.455-15.455 15.455z" fill="#fad989"/><path d="m232.725 147.395-31.032 124.121h-24.12l-16.732-57.275 16.732-66.846z" fill="#fad989"/><path d="m177.573 147.395v124.121h-6.965c-8.541 0-15.455-6.924-15.455-15.455v-93.211c0-8.541 6.913-15.455 15.455-15.455z" fill="#f6ca56"/><path d="m310.307 131.817v139.7h-31.033l-30.662-9.221-15.887 9.221h-31.033v-139.7c0-8.531 6.058-15.455 13.528-15.455h81.559c7.47 0 13.528 6.924 13.528 15.455z" fill="#bd9cde"/><path d="m279.273 271.515h-46.546v-47.061c0-8.284 6.716-15 15-15h16.546c8.284 0 15 6.716 15 15z" fill="#827cd2"/><path d="m279.273 186.151h-46.546c-4.268 0-7.727-3.459-7.727-7.727s3.46-7.727 7.727-7.727h46.546c4.268 0 7.727 3.459 7.727 7.727s-3.459 7.727-7.727 7.727z" fill="#fad989"/><path d="m279.273 147.363h-46.546c-4.268 0-7.727-3.459-7.727-7.727s3.46-7.727 7.727-7.727h46.546c4.268 0 7.727 3.459 7.727 7.727s-3.459 7.727-7.727 7.727z" fill="#fad989"/><path d="m511.001 447.555-.402 1.061c-9.046 24.13-32.115 40.11-57.883 40.11h-393.432c-25.768 0-48.837-15.98-57.883-40.11l-.402-1.061c-3.791-10.107 3.678-20.884 14.466-20.884h.052l57.378 13.446 104.658-11.571c5.656 1.298 11.158 3.266 16.392 5.884 5.1 2.555 10.458 4.492 15.98 5.79 5.512 1.298 11.168 1.968 16.876 1.968h58.398c11.405 0 22.656-2.658 32.856-7.758 5.1-2.555 10.468-4.493 15.98-5.79 5.512-1.298 11.169-1.968 16.876-1.968h145.624c10.788-.002 18.257 10.775 14.466 20.883z" fill="#827cd2"/><path d="m195.624 488.726h-136.34c-25.768 0-48.837-15.98-57.883-40.11l-.402-1.061c-3.791-10.107 3.678-20.884 14.466-20.884h145.623c5.564 0 11.086.639 16.464 1.875-.742.144-14.239 3.55-14.239 19.71.001 15.011 10.942 32.373 32.311 40.47z" fill="#625ac5"/><path d="m377.858 342.366c-5.236-2.007-10.196-4.132-13.435-5.562-2.655-1.172-3.484-3.674-3.375-5.625.428-7.617 13.243-6.355 19.814-.881 3.214 2.768 8.066 2.428 10.862-.773 2.808-3.214 2.478-8.096-.736-10.903-.37-.323-6.207-5.32-14.776-7.394v-8.681c0-4.268-3.46-7.727-7.727-7.727-4.268 0-7.727 3.459-7.727 7.727v8.969c-9.205 2.704-14.651 10.121-15.139 18.795-.503 8.943 4.429 17.041 12.564 20.632 3.399 1.5 8.612 3.734 14.145 5.854 2.62 1.004 8.619 3.857 7.734 8.637-1.649 8.918-17.304 9.402-25.147.411-2.806-3.217-7.687-3.549-10.903-.745-3.216 2.805-3.55 7.687-.745 10.903 4.504 5.163 10.698 8.873 17.49 10.655v8.98c0 4.268 3.46 7.727 7.727 7.727 4.268 0 7.727-3.459 7.727-7.727v-8.514c9.702-2.229 17.307-9.479 19.046-18.878 1.606-8.673-2.122-20.027-17.399-25.88z" fill="#fad989"/><path d="m318.066 318.066c0 4.286-1.741 8.16-4.544 10.962-2.813 2.803-6.687 4.544-10.973 4.544h-124.976l-11.21-12.003 11.21-19.019h124.976c8.562-.001 15.517 6.943 15.517 15.516z" fill="#80e0b7"/><path d="m139.637 302.549h37.936v31.022h-37.936c-8.572 0-15.516-6.944-15.516-15.506 0-4.286 1.731-8.16 4.544-10.973 2.812-2.812 6.686-4.543 10.972-4.543z" fill="#36d49b"/><path d="m318.066 380.121c0 4.286-1.741 8.171-4.544 10.973-2.813 2.802-6.687 4.543-10.973 4.543h-124.976l-10.942-19.617 10.942-11.416h124.976c8.562.001 15.517 6.945 15.517 15.517z" fill="#80e0b7"/><path d="m139.637 364.605h37.936v31.032h-37.936c-8.572 0-15.516-6.944-15.516-15.516 0-4.286 1.731-8.17 4.544-10.973 2.812-2.802 6.686-4.543 10.972-4.543z" fill="#36d49b"/><g><g><path d="m191.659 80.003c-4.268 0-7.727-3.459-7.727-7.727v-12.364c0-4.268 3.46-7.727 7.727-7.727s7.727 3.459 7.727 7.727v12.364c0 4.268-3.46 7.727-7.727 7.727z" fill="#495560"/></g><g><path d="m320.341 80.003c-4.268 0-7.727-3.459-7.727-7.727v-12.364c0-4.268 3.46-7.727 7.727-7.727 4.268 0 7.727 3.459 7.727 7.727v12.364c.001 4.268-3.459 7.727-7.727 7.727z" fill="#495560"/></g><g><path d="m256 87.363c-8.735 0-17.041-3.782-22.789-10.378-2.804-3.218-2.469-8.099.749-10.903 3.218-2.803 8.099-2.468 10.903.749 2.812 3.227 6.871 5.077 11.138 5.077s8.326-1.85 11.138-5.077c2.804-3.218 7.685-3.553 10.903-.749 3.217 2.804 3.552 7.685.749 10.903-5.75 6.596-14.056 10.378-22.791 10.378z" fill="#495560"/></g></g></g><g/><g/><g/><g/><g/><g/><g/><g/><g/><g/><g/><g/><g/><g/><g/></svg>