<svg id="Layer_1" enable-background="new 0 0 512 512" viewBox="0 0 512 512" xmlns="http://www.w3.org/2000/svg"><g><g><path clip-rule="evenodd" d="m.5 14.724h274.843v482.553h-274.843z" fill="#d7f1ff" fill-rule="evenodd"/></g><g><path clip-rule="evenodd" d="m.5 14.724h51.368v482.553h-51.368z" fill="#c4e4f5" fill-rule="evenodd"/></g><g><path clip-rule="evenodd" d="m86.307 364.32h103.23v132.957h-103.23z" fill="#505778" fill-rule="evenodd"/></g><g><path clip-rule="evenodd" d="m34.706 46.923h51.6v69.169h-51.6z" fill="#23a8fe" fill-rule="evenodd"/></g><g><path clip-rule="evenodd" d="m189.536 46.923h51.6v69.169h-51.6z" fill="#23a8fe" fill-rule="evenodd"/></g><g><path clip-rule="evenodd" d="m189.536 46.923h17.132v69.169h-17.132z" fill="#0193fa" fill-rule="evenodd"/></g><g><path clip-rule="evenodd" d="m112.107 46.923h51.629v69.169h-51.629z" fill="#23a8fe" fill-rule="evenodd"/></g><g><path clip-rule="evenodd" d="m34.706 245.441h51.6v69.169h-51.6z" fill="#23a8fe" fill-rule="evenodd"/></g><g><path clip-rule="evenodd" d="m189.536 245.441h51.6v69.169h-51.6z" fill="#23a8fe" fill-rule="evenodd"/></g><g><path clip-rule="evenodd" d="m189.536 245.441h17.132v69.169h-17.132z" fill="#0193fa" fill-rule="evenodd"/></g><g><path clip-rule="evenodd" d="m112.107 245.441h51.629v69.169h-51.629z" fill="#23a8fe" fill-rule="evenodd"/></g><g><path clip-rule="evenodd" d="m34.706 146.168h51.6v69.169h-51.6z" fill="#23a8fe" fill-rule="evenodd"/></g><g><path clip-rule="evenodd" d="m189.536 146.168h51.6v69.169h-51.6z" fill="#23a8fe" fill-rule="evenodd"/></g><g><path clip-rule="evenodd" d="m189.536 146.168h17.132v69.169h-17.132z" fill="#0193fa" fill-rule="evenodd"/></g><g><path clip-rule="evenodd" d="m112.107 146.168h51.629v69.169h-51.629z" fill="#23a8fe" fill-rule="evenodd"/></g><g><path clip-rule="evenodd" d="m415.862 46.923h87.988c4.218 0 7.65 3.432 7.65 7.65v83.858c0 4.218-3.432 7.679-7.65 7.679h-87.988c-4.218 0-7.65-3.461-7.65-7.679v-83.858c0-4.218 3.432-7.65 7.65-7.65z" fill="#fac149" fill-rule="evenodd"/></g><g><path clip-rule="evenodd" d="m439.132 46.923h41.42v34.963c0 2.705-2.211 4.916-4.887 4.916h-31.618c-2.705 0-4.916-2.211-4.916-4.916v-34.963z" fill="#ef5350" fill-rule="evenodd"/></g><path d="m318.333 46.923c0 3.968-3.217 7.185-7.184 7.185h-14.049c-3.968 0-7.184-3.217-7.184-7.185s3.217-7.185 7.184-7.185h14.049c3.967 0 7.184 3.217 7.184 7.185zm30.542-7.185h-14.049c-3.968 0-7.184 3.217-7.184 7.185s3.217 7.185 7.184 7.185h14.049c3.968 0 7.184-3.217 7.184-7.185s-3.216-7.185-7.184-7.185zm37.754 0h-14.049c-3.968 0-7.184 3.217-7.184 7.185s3.217 7.185 7.184 7.185h14.049c3.968 0 7.184-3.217 7.184-7.185s-3.216-7.185-7.184-7.185zm70.944 125.918c-3.968 0-7.184 3.217-7.184 7.185v12.856c0 3.968 3.217 7.185 7.184 7.185s7.184-3.217 7.184-7.185v-12.856c0-3.968-3.216-7.185-7.184-7.185zm0 34.554c-3.968 0-7.184 3.217-7.184 7.185v12.886c0 3.968 3.217 7.185 7.184 7.185s7.184-3.217 7.184-7.185v-12.886c0-3.968-3.216-7.185-7.184-7.185zm0 34.556c-3.968 0-7.184 3.217-7.184 7.185v12.886c0 3.968 3.217 7.185 7.184 7.185s7.184-3.217 7.184-7.185v-12.886c0-3.968-3.216-7.185-7.184-7.185z" fill="#23a8fe"/><g><path clip-rule="evenodd" d="m363.302 463.07v-3.403-183.83l35.253 59.221c4.014 6.748 10.733 10.559 18.587 10.559h10.762 40.867.407c10.966 0 19.925-8.959 19.925-19.896 0-10.937-8.959-19.895-19.925-19.895h-.407-39.064l-41.478-71.845c-5.003-8.668-13.584-13.642-23.59-13.642h-20.128-93.486c-19.459 0-35.37 15.94-35.37 35.399v70.362 3.374c0 11.693 9.57 21.263 21.263 21.263 11.693 0 21.263-9.57 21.263-21.263v87.028 43.165 11.344c0 14.427 11.838 26.266 26.295 26.266 14.456 0 26.266-11.838 26.266-26.266 0 14.427 11.838 26.266 26.266 26.266 14.456 0 26.295-11.838 26.295-26.266v-7.941z" fill="#ef5350" fill-rule="evenodd"/></g><g><path clip-rule="evenodd" d="m363.302 459.754v-.087-107.156h-105.12v63.991 43.165 11.344c0 14.427 11.838 26.266 26.295 26.266 14.456 0 26.266-11.838 26.266-26.266 0 14.427 11.838 26.266 26.266 26.266 14.456 0 26.295-11.838 26.295-26.266v-11.257z" fill="#464e6e" fill-rule="evenodd"/></g><g><path d="m297.042 405.071c0-3.781 3.054-6.865 6.835-6.865 3.81 0 6.865 3.083 6.865 6.865v65.94c0 9.89-5.556 18.587-13.7 23.037z" fill="#333950"/></g><g><path clip-rule="evenodd" d="m310.742 220.339c26.905 0 48.837-21.932 48.837-48.808s-21.932-48.808-48.837-48.808c-26.876 0-48.808 21.932-48.808 48.808 0 26.877 21.931 48.808 48.808 48.808z" fill="#ffcebf" fill-rule="evenodd"/></g><g><path d="m244.482 275.837c0-3.781 3.054-6.835 6.865-6.835 3.781 0 6.835 3.054 6.835 6.835v53.636c0 9.046-5.701 16.812-13.7 19.866z" fill="#c30c15"/></g><g><path d="m363.302 261.788c0-3.781 3.054-6.865 6.865-6.865 3.781 0 6.835 3.083 6.835 6.865v37.086l-13.7-23.037z" fill="#c30c15"/></g><g><path clip-rule="evenodd" d="m310.742 122.724c1.483 0 2.967.058 4.421.174-24.898 2.24-44.416 23.153-44.416 48.633s19.517 46.394 44.416 48.604c-1.454.145-2.938.204-4.421.204-26.964 0-48.808-21.844-48.808-48.808 0-26.963 21.844-48.807 48.808-48.807z" fill="#ffb09e" fill-rule="evenodd"/></g><g><path clip-rule="evenodd" d="m112.107 46.923h17.161v69.169h-17.161z" fill="#0193fa" fill-rule="evenodd"/></g><g><path clip-rule="evenodd" d="m112.107 245.441h17.161v69.169h-17.161z" fill="#0193fa" fill-rule="evenodd"/></g><g><path clip-rule="evenodd" d="m112.107 146.168h17.161v69.169h-17.161z" fill="#0193fa" fill-rule="evenodd"/></g><g><path clip-rule="evenodd" d="m34.706 46.923h17.161v69.169h-17.161z" fill="#0193fa" fill-rule="evenodd"/></g><g><path clip-rule="evenodd" d="m34.706 245.441h17.161v69.169h-17.161z" fill="#0193fa" fill-rule="evenodd"/></g><g><path clip-rule="evenodd" d="m34.706 146.168h17.161v69.169h-17.161z" fill="#0193fa" fill-rule="evenodd"/></g><g><path clip-rule="evenodd" d="m86.307 364.32h42.961v132.957h-42.961z" fill="#464e6e" fill-rule="evenodd"/></g><g><path clip-rule="evenodd" d="m415.862 46.923h10.791c-4.218 0-7.679 3.432-7.679 7.65v83.858c0 4.218 3.461 7.679 7.679 7.679h-10.791c-4.218 0-7.65-3.461-7.65-7.679v-83.858c0-4.218 3.432-7.65 7.65-7.65z" fill="#ed9a09" fill-rule="evenodd"/></g><g><path clip-rule="evenodd" d="m439.132 46.923h6.166v34.963c0 2.705 2.211 4.916 4.916 4.916h-6.166c-2.705 0-4.916-2.211-4.916-4.916z" fill="#d90d17" fill-rule="evenodd"/></g></g></svg>