<svg id="Layer_1" height="512" viewBox="0 0 512 512" width="512" xmlns="http://www.w3.org/2000/svg" data-name="Layer 1"><g fill-rule="evenodd"><path d="m80 392.605h352v-77.87c0-29.611-19.697-53.043-47.817-62.316l-128.183-42.269-128.183 42.269c-28.12 9.273-47.817 32.706-47.817 62.316z" fill="#525d91"/><path d="m107.486 392.605h324.514v-77.87c0-29.611-19.697-53.043-47.817-62.316l-113.943-37.573-114.936 37.901c-28.121 9.273-47.817 32.706-47.817 62.316v77.543z" fill="#5d689e"/><path d="m256 392.605h176v-77.87c0-29.61-19.697-53.043-47.817-62.316l-128.183-42.269z" fill="#7986bf"/><path d="m300.788 181.674 4.713 44.799-49.501 63.67-49.501-63.67 7.024-44.799z" fill="#e6b17c"/><path d="m236.409 264.945-29.91-38.472 7.024-44.799h22.886z" fill="#dea368"/><path d="m256 290.143 35.203 35.202 41.707-89.834-27.409-9.038z" fill="#3d4a75"/><path d="m256 290.143-35.203 35.202-41.707-89.834 27.409-9.038z" fill="#3d4a75"/><path d="m184.004 153.274c-.842-9.264.149-17.993.149-17.993-2.156-1.567-5.937-4.369-10.137-6.786-34.357-19.767-21.128 54.709 9.989 24.779z" fill="#e6b17c"/><path d="m327.996 153.274c.842-9.264-.149-17.993-.149-17.993 2.157-1.567 5.937-4.369 10.137-6.786 34.357-19.767 21.128 54.709-9.989 24.779z" fill="#e6b17c"/><path d="m256 225.134c49.329 0 81.985-48.782 81.985-96.639h-163.97c0 47.857 32.655 96.639 81.984 96.639z" fill="#f9c795"/><path d="m266.086 224.428c43.643-6.114 71.898-51.42 71.898-95.933h-143.796c0 44.513 28.255 89.819 71.898 95.933z" fill="#fdd7ad"/><path d="m149.716 87.135 24.299 23.793v17.568c21.171 22.793 50.876 35.744 81.985 35.744s60.813-12.95 81.984-35.744v-17.568l24.299-23.793c2.68-2.624 3.877-6.015 3.439-9.74-.439-3.725-2.391-6.745-5.607-8.675l-89.049-53.43c-9.516-5.71-20.616-5.71-30.132 0l-89.049 53.429c-3.216 1.93-5.169 4.95-5.607 8.675-.439 3.725.758 7.116 3.439 9.74z" fill="#323e66"/><path d="m232.144 161.665c7.774 1.697 15.767 2.574 23.856 2.574 31.109 0 60.813-12.95 81.984-35.744v-17.568l24.299-23.793c2.68-2.624 3.877-6.015 3.439-9.74-.439-3.725-2.391-6.745-5.607-8.675l-89.049-53.429c-4.231-2.539-8.775-3.948-13.353-4.229l-72.146 57.658c-2.929 2.341-5.169 4.95-5.607 8.675-.439 3.725.758 7.116 3.438 9.74l24.299 23.793v17.568c2.169 6.781 11.975 20.339 24.447 33.17z" fill="#3d4a75"/><path d="m337.984 128.495v-17.568c-54.279-9.08-109.69-9.08-163.969 0v17.568c54.463-6.496 109.506-6.496 163.969 0z" fill="#6a75ad"/><path d="m337.984 128.495v-17.568c-27.139-4.54-54.562-6.81-81.984-6.81v19.506c27.376 0 54.753 1.624 81.984 4.872z" fill="#7986bf"/><path d="m337.984 128.495c-54.463-6.496-109.506-6.496-163.969 0 21.171 22.793 50.876 35.744 81.985 35.744s60.813-12.95 81.984-35.744z" fill="#505b8f"/><path d="m337.984 128.495c-27.232-3.248-54.608-4.872-81.984-4.872v40.616c31.109 0 60.813-12.95 81.984-35.744z" fill="#5d689e"/><path d="m255.993 293.36c57.336 0 103.816 46.48 103.816 103.816s-46.48 103.816-103.816 103.816-103.816-46.48-103.816-103.816 46.48-103.816 103.816-103.816zm77.403 116.51h-64.709v64.705c33.144-5.395 59.314-31.562 64.709-64.705zm-71.128 0v-25.389h71.123c-6.068-37.277-38.408-65.733-77.399-65.733s-71.332 28.456-77.4 65.733h65.44v25.389zm-18.97 0h-64.709c5.395 33.144 31.565 59.31 64.709 64.705z" fill="#f89b00"/><path d="m255.994 420.378c12.779 0 23.202-10.423 23.202-23.202s-10.422-23.202-23.202-23.202-23.202 10.423-23.202 23.202 10.423 23.202 23.202 23.202z" fill="#fdc72e"/><path d="m259.603 374.254c11.1 1.734 19.593 11.336 19.593 22.922s-8.493 21.188-19.593 22.922c-11.1-1.734-19.592-11.336-19.592-22.922s8.493-21.188 19.592-22.922z" fill="#fddb1e"/></g></svg>