<svg id="Layer_1" enable-background="new 0 0 512 512" viewBox="0 0 512 512" xmlns="http://www.w3.org/2000/svg"><g><path d="m124.942 350.518h-24.231l-8.51 26.3 20.626 64.182 20.626-64.172z" fill="#2e3760"/><path d="m168.683 314.059-20.8 64.725-.143.43-25.081 78.049h52.466v-33.53c0-3.953 3.205-7.169 7.169-7.169 3.963 0 7.169 3.216 7.169 7.169v33.53h34.892v-61.745c0-22.101-6.636-42.87-18.69-58.478-10.191-13.2-23.146-21.199-36.982-22.981z" fill="#2e3760"/><path d="m112.448 291.826c43.843 0 79.513-35.691 79.513-79.544 0-43.843-35.67-79.513-79.513-79.513-43.864 0-79.544 35.67-79.544 79.513-.001 43.853 35.68 79.544 79.544 79.544z" fill="#2e3760"/><path d="m101.09 336.181h23.473l5.653-22.501h-34.769z" fill="#2e3760"/><path d="m77.801 378.887-20.861-64.91c-14.112 1.567-27.344 9.617-37.729 23.063-12.065 15.619-18.711 36.388-18.711 58.479v61.745h34.902v-33.53c0-3.953 3.206-7.169 7.169-7.169s7.169 3.216 7.169 7.169v33.53h53.245l-25.112-78.141c-.031-.082-.051-.154-.072-.236z" fill="#2e3760"/><path d="m380.136 341.608c-3.96 0-7.171 3.21-7.171 7.17v68.28h-92.104l21.231-21.232c2.8-2.8 2.8-7.34 0-10.141-2.8-2.799-7.341-2.8-10.141 0l-33.471 33.472c-2.799 2.799-2.8 7.337-.002 10.138l33.471 33.501c1.4 1.402 3.237 2.102 5.073 2.102 1.834 0 3.668-.699 5.068-2.098 2.802-2.799 2.804-7.339.005-10.141l-21.244-21.263h99.286c3.96 0 7.171-3.21 7.171-7.17v-75.45c-.001-3.957-3.212-7.168-7.172-7.168z" fill="#2e3760"/><g fill="#ff695a"><path d="m280.154 227.402c0 3.96 3.21 7.17 7.171 7.17h126.109c3.96 0 7.171-3.21 7.171-7.17s-3.21-7.17-7.171-7.17h-126.109c-3.96 0-7.171 3.21-7.171 7.17z"/><path d="m511.5 161.444c0-29.823-22.438-54.514-51.33-58.058v-25.839c0-16.796-13.662-30.447-30.447-30.447h-204.263c-19.469 0-35.302 15.843-35.302 35.322v74.557c0 3.953 3.216 7.169 7.169 7.169h49.117v122.414c0 19.458 15.813 35.281 35.251 35.281 28.542 0 57.566-.072 85.648-.133 18.332-.041 37.074-.082 55.815-.102v.031h43.136c15.679 0 28.42-12.75 28.42-28.42v-21.281c0-3.963-3.206-7.169-7.169-7.169h-27.375v-45.297c28.892-3.534 51.33-28.216 51.33-58.028zm-43.187-25.45c2.796-2.796 7.343-2.796 10.139 0 2.806 2.806 2.806 7.343 0 10.139l-40.76 40.76c-1.403 1.403-3.236 2.099-5.069 2.099s-3.667-.696-5.07-2.099c-2.796-2.796-2.796-7.343 0-10.139zm-25.225 15.546c-2.192 2.192-5.111 3.4-8.214 3.4s-6.022-1.208-8.224-3.4c-4.475-4.557-4.475-11.89-.041-16.407 2.243-2.233 5.162-3.441 8.265-3.441s6.022 1.208 8.214 3.4c1.106 1.096 1.956 2.386 2.53 3.779.584 1.393.881 2.888.881 4.445 0 3.104-1.209 6.022-3.411 8.224zm2.745 113.228h-136.035c-3.964 0-7.169 3.206-7.169 7.169v14.686c0 10.456-7.835 19.366-18.209 20.728l.021.143h-2.745c-11.532 0-20.903-9.391-20.903-20.933v-129.583-42.45-32.106c0-7.855-2.581-15.116-6.934-20.984h175.864c8.879 0 16.109 7.23 16.109 16.11v25.839c-28.87 3.544-51.298 28.235-51.298 58.058 0 29.812 22.428 54.484 51.298 58.027v45.296zm13.672-85.197c0-3.103 1.209-6.022 3.41-8.214 4.527-4.537 11.9-4.537 16.437 0 2.263 2.263 3.39 5.244 3.39 8.214 0 2.98-1.126 5.96-3.39 8.224-2.284 2.243-5.264 3.359-8.234 3.359-2.96 0-5.919-1.106-8.162-3.318-2.242-2.233-3.451-5.162-3.451-8.265z"/><path d="m340.713 105.532h61.428c3.96 0 7.171-3.21 7.171-7.17s-3.21-7.17-7.171-7.17h-61.428c-3.961 0-7.171 3.21-7.171 7.17s3.21 7.17 7.171 7.17z"/><path d="m293.306 168.209c0 3.96 3.21 7.17 7.171 7.17s7.171-3.21 7.171-7.17v-4.087c11.136-1.617 19.654-10.049 19.654-20.182 0-10.147-8.517-18.591-19.654-20.21v-12.483c3.257.269 5.312 2.183 5.312 3.546 0 3.96 3.21 7.17 7.171 7.17s7.171-3.21 7.171-7.17c0-9.669-8.751-17.554-19.654-17.907v-3.837c0-3.96-3.21-7.17-7.171-7.17s-7.171 3.21-7.171 7.17v4.083c-11.151 1.607-19.683 10.045-19.683 20.187 0 8.062 4.062 14.285 11.436 17.524 2.384 1.047 5.073 1.794 8.247 2.274v12.896c-3.23-.267-5.342-2.213-5.342-3.547 0-3.96-3.21-7.17-7.171-7.17s-7.171 3.21-7.171 7.17c0 9.677 8.768 17.568 19.683 17.908v3.835zm14.341-29.813c3.253 1.074 5.312 3.397 5.312 5.543 0 2.136-2.058 4.448-5.312 5.518zm-19.683-21.077c0-2.124 2.127-4.427 5.342-5.504v10.719c-5.335-1.276-5.342-3.619-5.342-5.215z"/><path d="m287.325 187.979c-3.96 0-7.171 3.21-7.171 7.17s3.21 7.17 7.171 7.17h96.527c3.96 0 7.171-3.21 7.171-7.17s-3.21-7.17-7.171-7.17z"/><path d="m340.713 137.785h40.294c3.96 0 7.171-3.21 7.171-7.17s-3.21-7.17-7.171-7.17h-40.294c-3.961 0-7.171 3.21-7.171 7.17s3.21 7.17 7.171 7.17z"/><path d="m340.713 170.067h35.503c3.96 0 7.171-3.21 7.171-7.17s-3.21-7.17-7.171-7.17h-35.503c-3.961 0-7.171 3.21-7.171 7.17s3.21 7.17 7.171 7.17z"/></g></g></svg>