<svg id="color" enable-background="new 0 0 24 24" height="512" viewBox="0 0 24 24" width="512" xmlns="http://www.w3.org/2000/svg"><path d="m15.5 10h-7c-.276 0-.5-.224-.5-.5v-2c0-1.378 1.121-2.5 2.5-2.5h3c1.379 0 2.5 1.122 2.5 2.5v2c0 .276-.224.5-.5.5z" fill="#2196f3"/><path d="m16.5 9.5h-9c-.306 0-.522.243-.5.57l1 7.5c.039.237.229.43.54.43.24-1.69 1.7-3 3.46-3s3.22 1.31 3.46 3c.311 0 .501-.193.54-.43l1-7.5c.021-.327-.194-.57-.5-.57z" fill="#90a4ae"/><path d="m18 11h-12c-.553 0-1-.448-1-1s.447-1 1-1h12c.553 0 1 .448 1 1s-.447 1-1 1z" fill="#607d8b"/><path d="m12 4c-1.103 0-2-.897-2-2s.897-2 2-2 2 .897 2 2-.897 2-2 2z" fill="#2196f3"/><path d="m12 20c-.827 0-1.5-.673-1.5-1.5s.673-1.5 1.5-1.5 1.5.673 1.5 1.5-.673 1.5-1.5 1.5z" fill="#4caf50"/><path d="m14.5 24h-5c-.276 0-.5-.224-.5-.5v-.5c0-1.103.897-2 2-2h2c1.103 0 2 .897 2 2v.5c0 .276-.224.5-.5.5z" fill="#4caf50"/><path d="m12 5h-1.5c-1.379 0-2.5 1.122-2.5 2.5v1.5h4z" fill="#1d83d4"/><path d="m12 11h-4.876l.876 6.57c.039.237.229.43.54.43.24-1.69 1.7-3 3.46-3z" fill="#7d8f97"/><path d="m12 9h-4-2c-.553 0-1 .448-1 1s.447 1 1 1h1.124 4.876z" fill="#546d79"/><path d="m12 0c-1.103 0-2 .897-2 2s.897 2 2 2z" fill="#1d83d4"/><path d="m12 17c-.827 0-1.5.673-1.5 1.5s.673 1.5 1.5 1.5z" fill="#429846"/><path d="m12 21h-1c-1.103 0-2 .897-2 2v.5c0 .276.224.5.5.5h2.5z" fill="#429846"/><g fill="#4caf50"><path d="m20 20c-.827 0-1.5-.673-1.5-1.5s.673-1.5 1.5-1.5 1.5.673 1.5 1.5-.673 1.5-1.5 1.5z"/><path d="m22.5 24h-5c-.276 0-.5-.224-.5-.5v-.5c0-1.103.897-2 2-2h2c1.103 0 2 .897 2 2v.5c0 .276-.224.5-.5.5z"/><path d="m4 20c-.827 0-1.5-.673-1.5-1.5s.673-1.5 1.5-1.5 1.5.673 1.5 1.5-.673 1.5-1.5 1.5z"/><path d="m6.5 24h-5c-.276 0-.5-.224-.5-.5v-.5c0-1.103.897-2 2-2h2c1.103 0 2 .897 2 2v.5c0 .276-.224.5-.5.5z"/></g><path d="m4 17c-.827 0-1.5.673-1.5 1.5s.673 1.5 1.5 1.5z" fill="#429846"/><path d="m4 21h-1c-1.103 0-2 .897-2 2v.5c0 .276.224.5.5.5h2.5z" fill="#429846"/><path d="m20 17c-.827 0-1.5.673-1.5 1.5s.673 1.5 1.5 1.5z" fill="#429846"/><path d="m20 21h-1c-1.103 0-2 .897-2 2v.5c0 .276.224.5.5.5h2.5z" fill="#429846"/></svg>