<svg id="Layer_1" enable-background="new 0 0 512 512" height="512" viewBox="0 0 512 512" width="512" xmlns="http://www.w3.org/2000/svg"><g><path d="m337.74 37.49v436.82c0 4.08-3.26 7.4-7.31 7.49-.06.01-.13.01-.19.01h-250c-4.15 0-7.5-3.36-7.5-7.5v-436.82c0-4.15 3.35-7.5 7.5-7.5h250c4.14 0 7.5 3.35 7.5 7.5z" fill="#c4893b"/><path d="m337.74 37.49v436.82c0 4.08-3.26 7.4-7.31 7.49h-30.19c4.14 0 7.5-3.35 7.5-7.5v-436.81c0-4.15-3.36-7.5-7.5-7.5h30c4.14 0 7.5 3.35 7.5 7.5z" fill="#b2581b"/><g fill="#555760"><path d="m357.74 474.29v30.21c0 4.14-3.36 7.5-7.5 7.5h-290c-4.15 0-7.5-3.36-7.5-7.5v-30.21c0-4.14 3.35-7.5 7.5-7.5h290c4.14 0 7.5 3.36 7.5 7.5z"/><path d="m357.74 7.5v30.21c0 4.14-3.36 7.5-7.5 7.5h-290c-4.15 0-7.5-3.36-7.5-7.5v-30.21c0-4.14 3.35-7.5 7.5-7.5h290c4.14 0 7.5 3.36 7.5 7.5z"/></g><g fill="#36383f"><path d="m357.74 474.29v30.21c0 4.14-3.36 7.5-7.5 7.5h-40c4.14 0 7.5-3.36 7.5-7.5v-30.21c0-4.14-3.36-7.5-7.5-7.5h40c4.14 0 7.5 3.36 7.5 7.5z"/><path d="m357.74 7.5v30.21c0 4.14-3.36 7.5-7.5 7.5h-40c4.14 0 7.5-3.36 7.5-7.5v-30.21c0-4.14-3.36-7.5-7.5-7.5h40c4.14 0 7.5 3.36 7.5 7.5z"/></g><path d="m115.235 68.045h180v217.835h-180z" fill="#b2581b"/><path d="m115.235 344.88h180v99.835h-180z" fill="#b2581b"/><path d="m264.68 68.045h30.555v217.835h-30.555z" fill="#a33a00"/><path d="m264.68 344.88h30.555v99.835h-30.555z" fill="#a33a00"/><path d="m459.26 255.9c0 71.26-57.76 129.02-129.02 129.02-6.2 0-12.29-.44-18.25-1.28-62.62-8.87-110.78-62.68-110.78-127.74 0-64.82 47.8-118.48 110.08-127.64 6.18-.92 12.51-1.39 18.95-1.39 71.26 0 129.02 57.77 129.02 129.03z" fill="#ff455c"/><path d="m459.26 255.9c0 71.26-57.76 129.02-129.02 129.02-6.2 0-12.29-.44-18.25-1.28 62.26-9.18 110.05-62.83 110.05-127.64 0-65.05-48.14-118.86-110.75-127.74 6.18-.92 12.51-1.39 18.95-1.39 71.26 0 129.02 57.77 129.02 129.03z" fill="#e51c5f"/><path d="m146.155 307.75h-28.837c-4.142 0-7.5 3.358-7.5 7.5s3.358 7.5 7.5 7.5h28.837c4.142 0 7.5-3.358 7.5-7.5s-3.358-7.5-7.5-7.5z" fill="#555760"/><path d="m358.52 256 31.819-31.82c1.953-1.953 1.953-5.119 0-7.071l-21.213-21.213c-1.951-1.952-5.119-1.952-7.07 0l-31.82 31.82-31.82-31.82c-1.951-1.952-5.119-1.952-7.07 0l-21.214 21.213c-.938.938-1.465 2.209-1.465 3.536s.526 2.598 1.465 3.536l31.818 31.819-31.819 31.82c-.938.938-1.465 2.209-1.465 3.536s.526 2.598 1.465 3.536l21.214 21.213c1.951 1.952 5.119 1.952 7.07 0l31.82-31.82 31.82 31.82c.976.976 2.256 1.464 3.535 1.464s2.56-.488 3.535-1.464l21.213-21.213c1.953-1.953 1.953-5.119 0-7.071z" fill="#eef6ff"/></g></svg>