<svg id="Layer_1" enable-background="new 0 0 512 512" height="512" viewBox="0 0 512 512" width="512" xmlns="http://www.w3.org/2000/svg"><g><g><g><path d="m432 384h60c2.209 0 4-1.791 4-4v-4c0-8.837-7.163-16-16-16h-48z" fill="#643773"/></g><g><path d="m392 384h52c2.209 0 4-1.791 4-4v-4c0-8.837-7.163-16-16-16h-48v16c0 4.418 3.582 8 8 8z" fill="#9b5faa"/></g><g><path d="m384 208h96v152h-96z" fill="#643773"/></g><g><path d="m384 208h48v152h-48z" fill="#9b5faa" transform="matrix(-1 0 0 -1 816 568)"/></g><g><path d="m384 208h96v-96c0-8.837-7.163-16-16-16h-64c-8.837 0-16 7.163-16 16z" fill="#a5c3dc"/></g><g><path d="m416 96h32c8.837 0 16 7.163 16 16 0 8.837-7.163 16-16 16-8.837 0-16-7.163-16-16 0-8.836-7.163-16-16-16z" fill="#f0915a"/></g><g><path d="m416 96h40c13.255 0 24-10.745 24-24v-40h-64z" fill="#f0915a"/></g><g><path d="m456 96c13.255 0 24-10.745 24-24v-40h-48v40c0 13.255 10.745 24 24 24z" fill="#fab991"/></g><g><path d="m384 144v-32c0-8.837 7.163-16 16-16 8.836 0 16 7.163 16 16v32z" fill="#d7e6f0"/></g><g><path d="m384 144v96c-4.418 0-8 3.582-8 8s3.582 8 8 8h16c8.837 0 16-7.164 16-16v-96z" fill="#f0915a"/></g><g><path d="m472 16h-40c-13.255 0-24 10.745-24 24v40c0 4.418 3.582 8 8 8h8c4.418 0 8-3.582 8-8v-16c4.418 0 8-3.582 8-8s3.582-8 8-8h24c8.837 0 16-7.164 16-16 0-8.837-7.163-16-16-16z" fill="#463c4b"/></g><g><path d="m424 72h8v-16h-8c-4.418 0-8 3.582-8 8 0 4.418 3.582 8 8 8z" fill="#f0915a"/></g></g><g><g><path d="m80 384h60c2.209 0 4-1.791 4-4v-4c0-8.837-7.163-16-16-16h-48z" fill="#643773"/></g><g><path d="m40 384h52c2.209 0 4-1.791 4-4v-4c0-8.837-7.163-16-16-16h-48v16c0 4.418 3.582 8 8 8z" fill="#9b5faa"/></g><g><path d="m32 208h96v152h-96z" fill="#643773"/></g><g><path d="m32 208h48v152h-48z" fill="#9b5faa" transform="matrix(-1 0 0 -1 112 568)"/></g><g><path d="m32 208h96v-96c0-8.837-7.163-16-16-16h-64c-8.837 0-16 7.163-16 16z" fill="#a5c3dc"/></g><g><path d="m64 96h32c8.837 0 16 7.163 16 16 0 8.837-7.163 16-16 16-8.837 0-16-7.163-16-16 0-8.836-7.163-16-16-16z" fill="#f0915a"/></g><g><path d="m64 96h40c13.255 0 24-10.745 24-24v-40h-64z" fill="#f0915a"/></g><g><path d="m104 96c13.255 0 24-10.745 24-24v-40h-48v40c0 13.255 10.745 24 24 24z" fill="#fab991"/></g><g><path d="m32 144v-32c0-8.837 7.163-16 16-16 8.836 0 16 7.163 16 16v32z" fill="#d7e6f0"/></g><g><path d="m32 144v96c-4.418 0-8 3.582-8 8s3.582 8 8 8h16c8.837 0 16-7.164 16-16v-96z" fill="#f0915a"/></g><g><path d="m120 16h-40c-13.255 0-24 10.745-24 24v40c0 4.418 3.582 8 8 8h8c4.418 0 8-3.582 8-8v-16c4.418 0 8-3.582 8-8s3.582-8 8-8h24c8.837 0 16-7.164 16-16 0-8.837-7.163-16-16-16z" fill="#463c4b"/></g><g><path d="m72 72h8v-16h-8c-4.418 0-8 3.582-8 8 0 4.418 3.582 8 8 8z" fill="#f0915a"/></g></g><g><g><path d="m208 384h60c2.209 0 4-1.791 4-4v-4c0-8.837-7.163-16-16-16h-48z" fill="#463c4b"/></g><g><path d="m168 384h52c2.209 0 4-1.791 4-4v-4c0-8.837-7.163-16-16-16h-48v16c0 4.418 3.582 8 8 8z" fill="#555a6e"/></g><g><path d="m160 208h96v152h-96z" fill="#f0915a"/></g><g><path d="m160 208h48v152h-48z" fill="#fab991" transform="matrix(-1 0 0 -1 368 568)"/></g><g><path d="m160 208h96v80h-96z" fill="#9b5faa" transform="matrix(-1 0 0 -1 416 496)"/></g><g><path d="m160 208h96v-96c0-8.837-7.163-16-16-16h-64c-8.837 0-16 7.163-16 16z" fill="#a5c3dc"/></g><g><path d="m192 96h32c8.837 0 16 7.163 16 16 0 8.837-7.163 16-16 16-8.837 0-16-7.163-16-16 0-8.836-7.163-16-16-16z" fill="#f0915a"/></g><g><path d="m192 96h40c13.255 0 24-10.745 24-24v-40h-64z" fill="#f0915a"/></g><g><path d="m232 96c13.255 0 24-10.745 24-24v-40h-48v40c0 13.255 10.745 24 24 24z" fill="#fab991"/></g><g><path d="m160 112v128c-4.595 0-8.284 3.873-7.983 8.533.275 4.252 3.996 7.467 8.257 7.467h15.726c8.837 0 16-7.163 16-16v-128c0-8.837-7.163-16-16-16-8.837 0-16 7.163-16 16z" fill="#f0915a"/></g><g><path d="m248 16h-40c-17.673 0-32 14.327-32 32v48h32v-32c4.364 0 7.912-3.494 7.998-7.837.09-4.481 3.517-8.163 8-8.163h24.002c8.837 0 16-7.164 16-16 0-8.837-7.163-16-16-16z" fill="#463c4b"/></g></g><g><g><path d="m272 496h-32c-44.183 0-80-35.817-80-80 0-44.183 35.817-80 80-80h32c44.183 0 80 35.817 80 80 0 44.183-35.817 80-80 80z" fill="#f06423"/></g><g><circle cx="240" cy="416" fill="#faa019" r="80"/></g><path d="m272 408c4.418 0 8-3.582 8-8v-9.167c0-12.59-10.243-22.833-22.833-22.833h-9.167v-8c0-4.418-3.582-8-8-8s-8 3.582-8 8v8h-9.167c-12.59 0-22.833 10.243-22.833 22.833 0 8.704 4.836 16.529 12.622 20.422l47.601 23.801c2.33 1.165 3.777 3.507 3.777 6.111 0 3.768-3.065 6.833-6.833 6.833h-34.334c-3.768 0-6.833-3.065-6.833-6.833v-9.167c0-4.418-3.582-8-8-8s-8 3.582-8 8v9.167c0 12.59 10.243 22.833 22.833 22.833h9.167v8c0 4.418 3.582 8 8 8s8-3.582 8-8v-8h9.167c12.59 0 22.833-10.243 22.833-22.833 0-8.704-4.836-16.529-12.622-20.422l-47.601-23.801c-2.33-1.165-3.777-3.507-3.777-6.111 0-3.768 3.065-6.833 6.833-6.833h34.334c3.768 0 6.833 3.065 6.833 6.833v9.167c0 4.418 3.582 8 8 8z" fill="#f06423"/></g><g><path d="m352 176h-16v-16c0-8.836-7.163-16-16-16s-16 7.164-16 16v16h-16c-8.837 0-16 7.164-16 16 0 8.836 7.163 16 16 16h16v16c0 8.836 7.163 16 16 16s16-7.164 16-16v-16h16c8.837 0 16-7.164 16-16 0-8.836-7.163-16-16-16z" fill="#23aae6"/></g></g></svg>