<svg height="512" viewBox="0 0 512 512" width="512" xmlns="http://www.w3.org/2000/svg"><g id="flat"><path d="m336 360h64l16-96h-96z" fill="#b3b3b3"/><path d="m328.308 313.846 7.692 46.154h64l14.909-89.455z" fill="#999"/><path d="m88 360h400v32h-400z" fill="#efd092"/><path d="m232 64h-16v-40a8 8 0 0 1 8-8 8 8 0 0 1 8 8z" fill="#ff8706"/><path d="m440 136-16-21.333v-74.667h-16v74.667l-16 21.333z" fill="#16a8fe"/><path d="m352 40h-16v74.667l-16 21.333h48l-16-21.333z" fill="#16a8fe"/><path d="m160 200h32v56h-32z" fill="#e50000"/><path d="m240 200h32v56h-32z" fill="#e50000"/><path d="m88 136h400v32h-400z" fill="#efd092"/><path d="m456 424h32l-24 48h-32z" fill="#b3b3b3"/><path d="m24 40a16 16 0 0 0 16 16h32a16 16 0 0 1 16 16v352h32v-352a48 48 0 0 0 -48-48h-32a16 16 0 0 0 -16 16z" fill="#d7dadc"/><path d="m456 88h32v336h-32z" fill="#d7dadc"/><circle cx="448" cy="472" fill="#4d4d4d" r="16"/><path d="m320 24h48v32a24 24 0 0 1 -24 24 24 24 0 0 1 -24-24z" fill="#95d7fe"/><path d="m392 24h48v32a24 24 0 0 1 -24 24 24 24 0 0 1 -24-24z" fill="#95d7fe"/><path d="m152 360h48v-84.686a27.315 27.315 0 0 0 -8-19.314v-24h-32v24a27.315 27.315 0 0 0 -8 19.314z" fill="#008c02"/><path d="m152 280h48v48h-48z" fill="#e6e6e6"/><path d="m406.667 320h-77.334l2.667 16h72z" fill="#4d4d4d"/><path d="m232 360h48v-84.686a27.315 27.315 0 0 0 -8-19.314v-24h-32v24a27.315 27.315 0 0 0 -8 19.314z" fill="#008c02"/><path d="m232 280h48v48h-48z" fill="#e6e6e6"/><path d="m88 424h32l-24 48h-32z" fill="#b3b3b3"/><circle cx="80" cy="472" fill="#4d4d4d" r="16"/><g fill="#666"><rect height="16" rx="8" width="16" x="96" y="368"/><rect height="16" rx="8" width="16" x="464" y="368"/><rect height="16" rx="8" width="16" x="96" y="144"/><rect height="16" rx="8" width="16" x="464" y="144"/><path d="m315.719 264-18.375 27.563 13.312 8.875 24.292-36.438z"/><path d="m420.281 264h-19.229l24.292 36.438 13.312-8.875z"/></g><path d="m224 40a64 64 0 0 0 -64 64v16h128v-16a64 64 0 0 0 -64-64z" fill="#ffc933"/><path d="m224 40a64 64 0 0 0 -64 64v16h128v-16a64 64 0 0 0 -64-64z" fill="#ffc933"/><path d="m263.651 53.782a97.832 97.832 0 0 1 -77.651 38.218 98.183 98.183 0 0 1 -24.211-3.017 64.128 64.128 0 0 0 -1.789 15.017v16h128v-16a63.868 63.868 0 0 0 -24.349-50.218z" fill="#ffb600"/><rect fill="#875632" height="32" rx="16" width="160" x="144" y="104"/><path d="m324.318 69.728a24 24 0 0 0 43.682-13.728v-23.295a67.135 67.135 0 0 1 -43.682 37.023z" fill="#78cef9"/><path d="m396.318 69.728a24 24 0 0 0 43.682-13.728v-23.295a67.135 67.135 0 0 1 -43.682 37.023z" fill="#78cef9"/><path d="m200 296-48 24v8h48z" fill="#d6d6d6"/><path d="m280 296-48 24v8h48z" fill="#d6d6d6"/></g></svg>