<svg enable-background="new 0 0 512 512" viewBox="0 0 512 512" xmlns="http://www.w3.org/2000/svg"><g id="_x31_3_Half_Price_x2C__Low_Price_x2C__Sales_x2C__Discount_x2C__Percentage"><g><g><path d="m308.041 422.531v52.04h-104.082v-52.04l42.257-8.743z" fill="#384466"/><path d="m511 58.245v333.061c0 17.246-13.978 31.224-31.224 31.224h-171.735-104.082-171.735c-17.246.001-31.224-13.978-31.224-31.224v-333.061c0-17.246 13.978-31.225 31.224-31.225h447.551c17.247 0 31.225 13.979 31.225 31.225z" fill="#445f80"/><path d="m42.633 68.653h426.735v312.245h-426.735z" fill="#eee6f2"/><path d="m354.878 484.98h-197.756c-5.748 0-10.408-4.66-10.408-10.408s4.66-10.408 10.408-10.408h197.755c5.748 0 10.408 4.66 10.408 10.408.001 5.748-4.66 10.408-10.407 10.408z" fill="#445f80"/><path d="m469.367 391.306h-426.734c-5.748 0-10.408-4.66-10.408-10.408v-312.245c0-5.748 4.66-10.408 10.408-10.408h426.735c5.748 0 10.408 4.66 10.408 10.408v312.245c0 5.748-4.661 10.408-10.409 10.408zm-416.326-20.816h405.918v-291.429h-405.918z" fill="#dbd4dd"/><g fill="#ff637a"><path d="m141.325 287.224h-36.429c-5.748 0-10.408-4.66-10.408-10.408s4.66-10.408 10.408-10.408h36.429c8.609 0 15.612-7.004 15.612-15.612 0-8.609-7.004-15.612-15.612-15.612h-36.429c-5.748 0-10.408-4.66-10.408-10.408v-52.041c0-5.748 4.66-10.408 10.408-10.408h52.041c5.748 0 10.408 4.66 10.408 10.408s-4.66 10.408-10.408 10.408h-41.633v31.224h26.02c20.087 0 36.429 16.342 36.429 36.429s-16.341 36.428-36.428 36.428z"/><path d="m250.611 287.224c-28.696 0-52.041-23.345-52.041-52.041v-20.816c0-28.696 23.345-52.041 52.041-52.041s52.041 23.345 52.041 52.041v20.816c0 28.696-23.345 52.041-52.041 52.041zm0-104.081c-17.217 0-31.224 14.007-31.224 31.224v20.816c0 17.217 14.007 31.225 31.224 31.225s31.224-14.007 31.224-31.225v-20.816c0-17.217-14.007-31.224-31.224-31.224z"/><path d="m311.427 283.654c-4.065-4.065-4.065-10.655 0-14.72l103.036-103.036c4.065-4.065 10.655-4.065 14.72 0s4.065 10.655 0 14.72l-103.036 103.036c-4.064 4.064-10.655 4.064-14.72 0z"/><circle cx="340.794" cy="195.367" r="10.403"/><circle cx="399.742" cy="254.236" r="10.403"/></g></g></g></g><g id="Layer_1"/></svg>