<svg id="Icons" height="512" viewBox="0 0 60 60" width="512" xmlns="http://www.w3.org/2000/svg"><path d="m39 27-1 16h-16l-1-16z" fill="#4c2726"/><path d="m36 25v-3.459a3 3 0 0 0 -2.507-2.959l-.613-.1h-5.76l-.613.1a3 3 0 0 0 -2.507 2.959v3.459z" fill="#e83a47"/><path d="m24.163 9a9.363 9.363 0 0 1 -.163-1.784v-1.169c0-3.289 2.571-5.047 6-5.047a3.7 3.7 0 0 1 3.429 1.758c1.714 0 2.571 1.821 2.571 3.289v1.169a9.363 9.363 0 0 1 -.163 1.784z" fill="#3f2625"/><path d="m31.67 15.6a15.805 15.805 0 0 0 1.21 2.88s-.41 1.52-2.88 1.52-2.88-1.52-2.88-1.52a15.805 15.805 0 0 0 1.21-2.88z" fill="#5e3330"/><path d="m36 9.57c0 1.76-.83 2.19-1.4 2.19a4.922 4.922 0 0 1 -.6-.03 4.183 4.183 0 0 1 -4 4.27 4.183 4.183 0 0 1 -4-4.27 4.922 4.922 0 0 1 -.6.03c-.57 0-1.4-.43-1.4-2.19a1.3 1.3 0 0 1 1.05-1.3 1.02 1.02 0 0 1 .79.16 2.056 2.056 0 0 1 2.16-2.43h4a2.056 2.056 0 0 1 2.16 2.43 1.02 1.02 0 0 1 .79-.16 1.3 1.3 0 0 1 1.05 1.3z" fill="#6d3e3a"/><rect fill="#5e3330" height="4" rx="1" width="22" x="19" y="24"/><path d="m5.51 47h-3.51a1 1 0 0 1 -1-1v-3a1 1 0 0 1 1-1h56a1 1 0 0 1 1 1v3a1 1 0 0 1 -1 1z" fill="#c8d4db"/><path d="m14.5 44.82v1.95a5.361 5.361 0 0 1 -2.11 4.41h-4.78a5.361 5.361 0 0 1 -2.11-4.41v-1.95z" fill="#6d3e3a"/><path d="m34.5 44.82v1.95a5.361 5.361 0 0 1 -2.11 4.41h-4.78a5.361 5.361 0 0 1 -2.11-4.41v-1.95z" fill="#f2ab8f"/><path d="m35 42.4c0 3.038-2.239 5.6-5 5.6s-5-2.562-5-5.6 2.239-4.4 5-4.4 5 1.362 5 4.4z" fill="#6d3e3a"/><path d="m38 57a2.006 2.006 0 0 1 -2 2h-12a2.006 2.006 0 0 1 -2-2c0-4.42 3.58-6 8-6s8 1.58 8 6z" fill="#365cc6"/><path d="m15 42.4c0 3.038-2.239 5.6-5 5.6s-5-2.562-5-5.6 2.239-4.4 5-4.4 5 1.362 5 4.4z" fill="#3f2625"/><path d="m18 57a2.006 2.006 0 0 1 -2 2h-12a2.006 2.006 0 0 1 -2-2c0-4.42 3.58-6 8-6s8 1.58 8 6z" fill="#f2ba1d"/><path d="m54.5 44.82v1.95a5.361 5.361 0 0 1 -2.11 4.41h-4.78a5.361 5.361 0 0 1 -2.11-4.41v-1.95z" fill="#6d3e3a"/><path d="m55 42.4c0 3.038-2.239 5.6-5 5.6s-5-2.562-5-5.6 2.239-4.4 5-4.4 5 1.362 5 4.4z" fill="#3f2625"/><path d="m58 57a2.006 2.006 0 0 1 -2 2h-12a2.006 2.006 0 0 1 -2-2c0-4.42 3.58-6 8-6s8 1.58 8 6z" fill="#f2ba1d"/></svg>