<svg id="Icon" viewBox="0 0 24 24" xmlns="http://www.w3.org/2000/svg"><path d="m11 2.25h-6c-1.517 0-2.75 1.233-2.75 2.75v15c0 .965.785 1.75 1.75 1.75h9c.414 0 .75-.336.75-.75v-16c0-1.517-1.233-2.75-2.75-2.75z" fill="#bad7ff"/><path d="m19 8.25h-4c-1.517 0-2.75 1.233-2.75 2.75v10c0 .414.336.75.75.75h7c.965 0 1.75-.785 1.75-1.75v-9c0-1.517-1.233-2.75-2.75-2.75z" fill="#bad7ff"/><path d="m10.75 16v5.75h-5.5v-5.75c0-.966.784-1.75 1.75-1.75h2c.966 0 1.75.784 1.75 1.75zm-1-5c0-.414-.336-.75-.75-.75h-2c-.414 0-.75.336-.75.75s.336.75.75.75h2c.414 0 .75-.336.75-.75zm9 6c0-.414-.336-.75-.75-.75h-2c-.414 0-.75.336-.75.75s.336.75.75.75h2c.414 0 .75-.336.75-.75zm0-4c0-.414-.336-.75-.75-.75h-2c-.414 0-.75.336-.75.75s.336.75.75.75h2c.414 0 .75-.336.75-.75zm-9-6c0-.414-.336-.75-.75-.75h-2c-.414 0-.75.336-.75.75s.336.75.75.75h2c.414 0 .75-.336.75-.75z" fill="#549bff"/></svg>