<svg id="Layer_1" height="512" viewBox="0 0 64 64" width="512" xmlns="http://www.w3.org/2000/svg" data-name="Layer 1"><path d="m18 5a5.006 5.006 0 0 0 -5 5v20a1 1 0 0 0 1 1h8a1 1 0 0 0 1-1v-20a5.006 5.006 0 0 0 -5-5z" fill="#ffc250"/><path d="m55 14v38.78a6.263 6.263 0 0 1 -6.22 6.22h-21.78a6 6 0 0 1 -6-6v-44a4 4 0 0 0 -3.33-3.94.881.881 0 0 1 .33-.06h28a9.026 9.026 0 0 1 9 9z" fill="#61a2f9"/><path d="m55 14v38.78a6.116 6.116 0 0 1 -1.19 3.63 6.193 6.193 0 0 1 -3.59 1.15h-21.78a5.992 5.992 0 0 1 -6-6v-44a3.913 3.913 0 0 0 -.94-2.56h24.5a9.026 9.026 0 0 1 9 9z" fill="#80b4fb"/><path d="m38 18a3 3 0 1 1 3-3 1 1 0 0 1 -2 0 1 1 0 1 0 -1 1 1 1 0 0 1 0 2z" fill="#ffe07d"/><path d="m38 22a3 3 0 0 1 -3-3 1 1 0 0 1 2 0 1 1 0 1 0 1-1 1 1 0 0 1 0-2 3 3 0 0 1 0 6z" fill="#ffe07d"/><path d="m38 14a1 1 0 0 1 -1-1v-1.333a1 1 0 0 1 2 0v1.333a1 1 0 0 1 -1 1z" fill="#ffe07d"/><path d="m38 23.333a1 1 0 0 1 -1-1v-1.333a1 1 0 0 1 2 0v1.333a1 1 0 0 1 -1 1z" fill="#ffe07d"/><g fill="#eaf7ff"><path d="m48 29h-4a1 1 0 0 1 0-2h4a1 1 0 0 1 0 2z"/><path d="m41 29h-13a1 1 0 0 1 0-2h13a1 1 0 0 1 0 2z"/><path d="m48 39h-2a1 1 0 0 1 0-2h2a1 1 0 0 1 0 2z"/><path d="m43 39h-15a1 1 0 0 1 0-2h15a1 1 0 0 1 0 2z"/><path d="m31 34h-3a1 1 0 0 1 0-2h3a1 1 0 0 1 0 2z"/><path d="m48 34h-14a1 1 0 0 1 0-2h14a1 1 0 0 1 0 2z"/><path d="m48 44h-20a1 1 0 0 1 0-2h20a1 1 0 0 1 0 2z"/></g><path d="m29 47a11.994 11.994 0 0 1 -20.89 8.05 11.88 11.88 0 0 1 -3.11-8.05 12.01 12.01 0 0 1 12-12 12.017 12.017 0 0 1 12 12z" fill="#ffc250"/><path d="m26 43a13.01 13.01 0 0 1 -17.89 12.05 11.88 11.88 0 0 1 -3.11-8.05 12.01 12.01 0 0 1 12-12 11.88 11.88 0 0 1 8.05 3.11 13.026 13.026 0 0 1 .95 4.89z" fill="#ffe07d"/><path d="m25 47a8.016 8.016 0 1 1 -1.87-5.13 8.011 8.011 0 0 1 1.87 5.13z" fill="#c6e5ff"/><path d="m25 47a7.992 7.992 0 0 1 -13.13 6.13 7.992 7.992 0 0 1 11.26-11.26 7.992 7.992 0 0 1 1.87 5.13z" fill="#eaf7ff"/><path d="m16 50a1 1 0 0 1 -.707-.293l-2-2a1 1 0 0 1 1.414-1.414l1.293 1.293 3.293-3.293a1 1 0 0 1 1.414 1.414l-4 4a1 1 0 0 1 -.707.293z" fill="#fe9c39"/><path d="m59 49v3a7.008 7.008 0 0 1 -7 7h-24a.866.866 0 0 1 -.32-.06 3.994 3.994 0 0 0 2.46-1.46 3.9 3.9 0 0 0 .86-2.48v-6a1 1 0 0 1 1-1h26a1 1 0 0 1 1 1z" fill="#4665e8"/><path d="m57.48 48v2.48a7.008 7.008 0 0 1 -7 7h-20.34a3.9 3.9 0 0 0 .86-2.48v-6a1 1 0 0 1 1-1z" fill="#566ff8"/></svg>