<svg id="Layer_3" enable-background="new 0 0 64 64" height="512" viewBox="0 0 64 64" width="512" xmlns="http://www.w3.org/2000/svg"><g><path d="m2 17v45h60v-45" fill="#e7e4dd"/><path d="m50 32h12v26h-12z" fill="#c1c8d1"/><path d="m50 32h12v4h-12z" fill="#758190"/><path d="m50 36h12v4h-12z" fill="#a8b0bc"/><path d="m50 40h12v4h-12z" fill="#758190"/><path d="m36 39v-4h2c1.105 0 2 .895 2 2 0 1.105-.895 2-2 2z" fill="#c16b3f"/><path d="m36 39v-4h-2c-1.105 0-2 .895-2 2 0 1.105.895 2 2 2z" fill="#e39854"/><path d="m24 39v-4h2c1.105 0 2 .895 2 2 0 1.105-.895 2-2 2z" fill="#c16b3f"/><path d="m24 39v-4h-2c-1.105 0-2 .895-2 2 0 1.105.895 2 2 2z" fill="#e39854"/><path d="m12 39v-4h2c1.105 0 2 .895 2 2 0 1.105-.895 2-2 2z" fill="#c16b3f"/><path d="m12 39v-4h-2c-1.105 0-2 .895-2 2 0 1.105.895 2 2 2z" fill="#e39854"/><path d="m30 17h12v15h-12z" fill="#a8b0bc"/><path d="m30 32v-15h-12v15" fill="#c1c8d1"/><path d="m18 32v-15h-12v15" fill="#a8b0bc"/><path d="m6 42h12v4h-12z" fill="#f7d881"/><path d="m30 42h12v4h-12z" fill="#f7d881"/><path d="m18 42h12v4h-12z" fill="#f2c351"/><path d="m30 46h12v12h-12z" fill="#a8b0bc"/><path d="m18 46h12v12h-12z" fill="#c1c8d1"/><path d="m6 46h12v12h-12z" fill="#a8b0bc"/><path d="m2 58h60v4h-60z" fill="#8892a0"/><path d="m2 14h60l-5-12h-50z" fill="#c1c8d1"/><path d="m14 14v3c0 1.657-1.343 3-3 3-1.657 0-3-1.343-3-3v-3" fill="#8892a0"/><path d="m20 14v3c0 1.657-1.343 3-3 3-1.657 0-3-1.343-3-3v-3" fill="#f7d881"/><path d="m8 14v3c0 1.657-1.343 3-3 3-1.657 0-3-1.343-3-3v-3" fill="#f7d881"/><path d="m26 14v3c0 1.657-1.343 3-3 3-1.657 0-3-1.343-3-3v-3" fill="#8892a0"/><path d="m32 14v3c0 1.657-1.343 3-3 3-1.657 0-3-1.343-3-3v-3" fill="#f7d881"/><path d="m38 14v3c0 1.657-1.343 3-3 3-1.657 0-3-1.343-3-3v-3" fill="#8892a0"/><path d="m44 14v3c0 1.657-1.343 3-3 3-1.657 0-3-1.343-3-3v-3" fill="#f7d881"/><path d="m50 14v3c0 1.657-1.343 3-3 3-1.657 0-3-1.343-3-3v-3" fill="#8892a0"/><path d="m62 14v3c0 1.657-1.343 3-3 3-1.657 0-3-1.343-3-3v-3" fill="#8892a0"/><path d="m56 14v3c0 1.657-1.343 3-3 3-1.657 0-3-1.343-3-3v-3" fill="#f7d881"/><g fill="#ebf7fe"><circle cx="12" cy="52" r="3"/><circle cx="24" cy="52" r="3"/><circle cx="36" cy="52" r="3"/></g><g><path d="m52.999 48h5.999v2h-5.999z" fill="#758190"/></g><g fill="#758190"><path d="m20.998 6.763-1.105-2.211c-.337-.678-1.449-.676-1.788 0l-1.105 2.211v-2.763h-2v7c0 .464.318.867.77.974.458.11.917-.111 1.124-.526l2.106-4.211 2.105 4.211c.171.343.521.552.893.552.076 0 .153-.009.23-.027.451-.107.77-.51.77-.974v-6.999h-2z"/><path d="m29.832 4.445c-.186-.278-.498-.446-.833-.445h-2.001c-.334 0-.646.167-.832.445-1.418 2.128-2.167 4.604-2.167 7.16v.394h2v-.394c0-.542.048-1.077.126-1.606h3.746c.078.53.126 1.066.126 1.609l.003.394 1.999-.005-.001-.391c0-2.558-.749-5.034-2.166-7.161zm-3.195 3.555c.242-.69.532-1.365.912-2h.9c.38.634.669 1.309.912 2z"/><path d="m32.999 5v3c0 .552.447 1 1 1h3.999v1h-4.999v2h5.999c.553 0 1-.447 1-1v-3c0-.553-.447-1-1-1h-3.999v-1h4.999v-2h-5.999c-.553 0-1 .447-1 1z"/><path d="m47 4v3h-4.002v-3h-1.999v7.999h1.999v-3h4.002v3h1.999v-7.999z"/></g><g><path d="m54.999 52h1.999v2h-1.999z" fill="#758190"/></g><circle cx="12" cy="26" fill="#ebf7fe" r="3"/><circle cx="24" cy="26" fill="#ebf7fe" r="3"/><circle cx="36" cy="26" fill="#ebf7fe" r="3"/></g></svg>