<svg id="Layer_1" height="512" viewBox="0 0 512 512" width="512" xmlns="http://www.w3.org/2000/svg" data-name="Layer 1"><path d="m478.68 446.34v28.41h-445.36v-28.41h130.63a12.056 12.056 0 0 0 12.05-12.05 12.05 12.05 0 0 0 12.05 12.05h135.9a12.056 12.056 0 0 0 12.05-12.05 12.056 12.056 0 0 0 12.05 12.05z" fill="#6d7486"/><path d="m33 446h30v29h-30z" fill="#4d5360"/><path d="m483.95 37h-135.9a12.266 12.266 0 0 0 -12.05 12.3v388.99a11.771 11.771 0 0 0 12.05 11.71h135.9a11.771 11.771 0 0 0 12.05-11.71v-388.99a12.266 12.266 0 0 0 -12.05-12.3z" fill="#5fa8ed"/><path d="m323.95 37h-135.9a12.259 12.259 0 0 0 -12.05 12.3v388.99a11.765 11.765 0 0 0 12.05 11.71h135.9a11.771 11.771 0 0 0 12.05-11.71v-388.99a12.266 12.266 0 0 0 -12.05-12.3z" fill="#f3ce7d"/><path d="m163.95 37h-135.9a12.266 12.266 0 0 0 -12.05 12.3v388.99a11.771 11.771 0 0 0 12.05 11.71h135.9a11.771 11.771 0 0 0 12.05-11.71v-388.99a12.266 12.266 0 0 0 -12.05-12.3z" fill="#e87187"/><path d="m383.18 221.11v35.33a10.045 10.045 0 0 1 -20.09 0v-35.33a10.045 10.045 0 1 1 20.09 0z" fill="#9ea3b2"/><path d="m296.94 92.48v20.63a4.012 4.012 0 0 1 -4.01 4.02h-73.86a4.012 4.012 0 0 1 -4.01-4.02v-20.63a4.012 4.012 0 0 1 4.01-4.02h73.86a4.012 4.012 0 0 1 4.01 4.02z" fill="#e87187"/><path d="m223.18 221.11v35.33a10.045 10.045 0 0 1 -20.09 0v-35.33a10.045 10.045 0 1 1 20.09 0z" fill="#9ea3b2"/><path d="m136.94 92.48v20.63a4.018 4.018 0 0 1 -4.01 4.02h-73.86a4.012 4.012 0 0 1 -4.01-4.02v-20.63a4.012 4.012 0 0 1 4.01-4.02h73.86a4.018 4.018 0 0 1 4.01 4.02z" fill="#5fa8ed"/><path d="m456.92 92.48v20.63a4.018 4.018 0 0 1 -4.01 4.02h-63.82a4.018 4.018 0 0 1 -4.01-4.02v-20.63a4.018 4.018 0 0 1 4.01-4.02h63.82a4.018 4.018 0 0 1 4.01 4.02z" fill="#f3ce7d"/><path d="m46 438.29v-388.99a12.266 12.266 0 0 1 12.05-12.3h-30a12.266 12.266 0 0 0 -12.05 12.3v388.99a11.771 11.771 0 0 0 12.05 11.71h30a11.771 11.771 0 0 1 -12.05-11.71z" fill="#b76778"/><path d="m63.18 221.11v35.33a10.045 10.045 0 0 1 -20.09 0v-35.33a10.045 10.045 0 1 1 20.09 0z" fill="#9ea3b2"/><g id="_Rectangle_2-2" data-name=" Rectangle 2-2"><path d="m291.229 384.465h-70.458a6 6 0 0 1 0-12h70.458a6 6 0 0 1 0 12z" fill="#c6a563"/></g><g id="_Rectangle_2-5" data-name=" Rectangle 2-5"><path d="m131.229 384.465h-70.458a6 6 0 0 1 0-12h70.458a6 6 0 0 1 0 12z" fill="#894c5c"/></g><g id="_Rectangle_2-8" data-name=" Rectangle 2-8"><path d="m451.229 384.465h-70.458a6 6 0 0 1 0-12h70.458a6 6 0 0 1 0 12z" fill="#4a88bc"/></g><g id="_Rectangle_2-2-2" data-name=" Rectangle 2-2"><path d="m291.229 364.381h-70.458a6 6 0 1 1 0-12h70.458a6 6 0 0 1 0 12z" fill="#c6a563"/></g><g id="_Rectangle_2-5-2" data-name=" Rectangle 2-5"><path d="m131.229 364.381h-70.458a6 6 0 0 1 0-12h70.458a6 6 0 1 1 0 12z" fill="#894c5c"/></g><g id="_Rectangle_2-8-2" data-name=" Rectangle 2-8"><path d="m451.229 364.381h-70.458a6 6 0 0 1 0-12h70.458a6 6 0 0 1 0 12z" fill="#4a88bc"/></g><g id="_Rectangle_2-2-3" data-name=" Rectangle 2-2"><path d="m291.229 404.549h-70.458a6 6 0 1 1 0-12h70.458a6 6 0 1 1 0 12z" fill="#c6a563"/></g><g id="_Rectangle_2-5-3" data-name=" Rectangle 2-5"><path d="m131.229 404.549h-70.458a6 6 0 0 1 0-12h70.458a6 6 0 1 1 0 12z" fill="#894c5c"/></g><g id="_Rectangle_2-8-3" data-name=" Rectangle 2-8"><path d="m451.229 404.549h-70.458a6 6 0 1 1 0-12h70.458a6 6 0 1 1 0 12z" fill="#4a88bc"/></g><g fill="#f4f8fc"><path d="m36.991 73.65a6 6 0 0 1 -6-6v-7.232a6 6 0 1 1 12 0v7.232a6 6 0 0 1 -6 6z"/><path d="m36.991 150.489a6 6 0 0 1 -6-6v-57.983a6 6 0 0 1 12 0v57.983a6 6 0 0 1 -6 6z"/></g></svg>