<svg id="Layer_1" enable-background="new 0 0 512 512" height="512" viewBox="0 0 512 512" width="512" xmlns="http://www.w3.org/2000/svg"><g><g><path d="m377.597 207.842h-50.291c-2.656-7.356-4.384-12.139-4.384-12.139l-23.063-1.386-12.674 15.852 6.695 18.527c3.69 10.212 13.382 17.017 24.24 17.021l59.477.02c10.464 0 18.947-8.483 18.947-18.947 0-10.465-8.483-18.948-18.947-18.948z" fill="#ffb69e"/><g><path d="m166.323 192.3-25.23 3.815c-14.822 41.614-32.241 89.275-32.481 89.933-3.652 9.986 1.484 21.042 11.471 24.693 9.962 3.644 21.035-1.464 24.694-11.471.238-.651 32.2-89.103 32.2-89.103z" fill="#ffb69e"/><g id="XMLID_345_"><g id="XMLID_347_"><path d="m203.99 512c-12.76 0-23.104-10.344-23.104-23.104v-184.671c0-12.76 10.344-23.104 23.104-23.104s23.104 10.344 23.104 23.104v184.672c0 12.759-10.344 23.103-23.104 23.103z" fill="#ffb69e"/></g><g id="XMLID_346_"><path d="m260.173 512c-12.76 0-23.104-10.344-23.104-23.104v-184.671c0-12.76 10.344-23.104 23.104-23.104s23.104 10.344 23.104 23.104v184.672c-.001 12.759-10.345 23.103-23.104 23.103z" fill="#ffb69e"/></g></g><g><path d="m286.515 208.314s.24.664.67 1.855l35.737-14.466s-8.306-23.242-12.969-36.813c-6.699-19.492-16.796-31.779-30.117-36.705-4.443-1.643-9.246 6.652-14.4 6.652h-66.708c-5.152 0-9.952-8.296-14.393-6.655-13.325 4.925-23.424 17.212-30.124 36.707-4.664 13.572-13.117 37.227-13.117 37.227l35.884 14.053c.429-1.189.669-1.852.669-1.852-.643 3.711-4.091 23.609-4.091 23.609l1.504 6.262-3.612 5.898s-14.245 82.203-16.05 92.615c-1.136 6.553 3.937 12.535 10.538 12.535h132.289c6.636 0 11.673-5.986 10.538-12.535-1.777-10.252-16.05-92.615-16.05-92.615l-3.607-5.514 1.5-6.646c.001.001-3.448-19.899-4.091-23.612z" fill="#373c41"/></g><circle cx="232.081" cy="64.054" fill="#ffb69e" r="39.903"/><path d="m232.081 184.204c25.509 0 46.349-35.773 47.754-62.02-4.443-1.643-9.246-2.468-14.4-2.468h-66.708c-5.154 0-9.957.825-14.4 2.468 1.406 26.247 22.245 62.02 47.754 62.02z" fill="#fff"/><g><path d="m270.511 8.533c-24.349-11.377-52.51-11.377-76.859 0-2.242 1.048-3.127 3.784-1.969 5.971 3.446 6.509 6.893 13.018 10.339 19.527 1.083 2.046 3.563 2.852 5.678 1.911 15.516-6.897 33.245-6.897 48.761 0 2.116.941 4.595.135 5.678-1.911 3.446-6.509 6.893-13.018 10.339-19.527 1.16-2.187.275-4.923-1.967-5.971z" fill="#373c41"/></g><g><path d="m245.854 112.595c-7.821 8.612-21.468 8.612-29.289 0-.774-.852-1.965-1.188-3.064-.846l-11.377 3.538c-1.838.572-2.648 2.72-1.645 4.363l9.252 15.158c3.112 5.098 9.784 6.681 14.854 3.523l6.624-4.126 6.624 4.126c5.07 3.158 11.743 1.575 14.854-3.523l9.252-15.158c1.003-1.643.193-3.791-1.645-4.363l-11.377-3.538c-1.099-.342-2.29-.006-3.063.846z" fill="#373c41"/></g><g><path d="m231.755 145.56c-2.757 0-4.992 2.235-4.992 4.992s2.235 4.992 4.992 4.992 4.992-2.235 4.992-4.992c0-2.758-2.235-4.992-4.992-4.992z" fill="#373c41"/></g><g><path d="m231.755 164.813c-2.757 0-4.992 2.235-4.992 4.992s2.235 4.992 4.992 4.992 4.992-2.235 4.992-4.992-2.235-4.992-4.992-4.992z" fill="#373c41"/></g><g><path d="m290.607 231.927h-117.052l-2.107 12.16h27.701v37.44c0 12.536 10.163 22.698 22.698 22.698h20.821c12.536 0 22.698-10.162 22.698-22.698v-37.44h27.348z" fill="#fff"/></g></g></g><g><g><path d="m368.695 487.021c-5.522 0-10-4.477-10-10v-317.141c0-5.523 4.478-10 10-10s10 4.477 10 10v317.141c0 5.523-4.477 10-10 10z" fill="#e64937"/></g><path d="m419.982 478.793c-1.519-6.818-7.568-11.667-14.553-11.667h-73.47c-6.985 0-13.033 4.849-14.552 11.667l-1.524 6.84 52.812 8.146 52.812-8.146z" fill="#e64937"/><path d="m377.597 495.563 4.393 16.437h13.417v-21.8l6.559 21.8h21.004c2.264 0 3.945-2.097 3.453-4.307l-4.916-22.06h-105.624l-4.916 22.06c-.492 2.21 1.189 4.307 3.453 4.307h63.177z" fill="#87afb9"/></g><path d="m139.894 331.219h-5.426v-32.43c0-5.523-4.478-10-10-10s-10 4.477-10 10v32.43h-5.425c-12.987 0-23.553 10.565-23.553 23.552v33.293c0 3.313 2.687 6 6 6h65.955c3.313 0 6-2.687 6-6v-33.293c.001-12.986-10.564-23.552-23.551-23.552z" fill="#e64937"/><g><path d="m104.12 394.064c-2.045 0-3.702-1.658-3.702-3.702v-20.543c0-8.013 6.519-14.533 14.533-14.533h19.036c8.013 0 14.533 6.519 14.533 14.533v20.543c0 2.045-1.658 3.702-3.702 3.702z" fill="#c94030"/></g></g></svg>