<svg height="512" viewBox="0 0 32 32" width="512" xmlns="http://www.w3.org/2000/svg"><g id="booking_online"><g><g><path d="m27 1h-22c-2.2050781 0-4 1.7944336-4 4v22c0 2.2055664 1.7949219 4 4 4h22c2.2060547 0 4-1.7944336 4-4v-22c0-2.2055664-1.7939453-4-4-4z" fill="#e0e0e0"/><path d="m27 1h-22c-2.2050781 0-4 1.7944336-4 4v3h30v-3c0-2.2055664-1.7939453-4-4-4z" fill="#42a5f5"/><g><circle cx="27" cy="5" fill="#ef5350" r="1"/></g><g><circle cx="24" cy="5" fill="#66bb6a" r="1"/></g><g><circle cx="21" cy="5" fill="#ffca28" r="1"/></g><path d="m27.7070313 26.2929688-.2929688-.2929688.2929688-.2929688c.2451172-.2451172.3457031-.5996094.2666016-.9370117-.0800781-.3369141-.328125-.6088867-.6572266-.71875l-3-1c-.3583984-.1206055-.7558594-.0258789-1.0234375.2416992s-.3613281.6640625-.2412109 1.0234375l1 3c.109375.3286133.3808594.5771484.71875.6567383.0761718.0180664.1533202.0268555.2294921.0268555.2617188 0 .5175781-.1030273.7070313-.2929688l.2929687-.2929687.2929688.2929688c.1953125.1953125.4511718.2929687.7070312.2929687s.5117188-.0976563.7070313-.2929688c.390625-.3906249.390625-1.0234374 0-1.4140624z" fill="#42a5f5"/><g><path d="m16 26h-10c-.5527344 0-1-.4477539-1-1s.4472656-1 1-1h10c.5527344 0 1 .4477539 1 1s-.4472656 1-1 1z" fill="#78909c"/></g><g><path d="m26 13h-6c-.5527344 0-1-.4477539-1-1s.4472656-1 1-1h6c.5527344 0 1 .4477539 1 1s-.4472656 1-1 1z" fill="#78909c"/></g><g><path d="m26 17h-6c-.5527344 0-1-.4477539-1-1s.4472656-1 1-1h6c.5527344 0 1 .4477539 1 1s-.4472656 1-1 1z" fill="#78909c"/></g><g><path d="m26 21h-6c-.5527344 0-1-.4477539-1-1s.4472656-1 1-1h6c.5527344 0 1 .4477539 1 1s-.4472656 1-1 1z" fill="#78909c"/></g><g><g><path d="m16 22c-.5527344 0-1-.4477539-1-1v-1c0-.5522461.4472656-1 1-1s1 .4477539 1 1v1c0 .5522461-.4472656 1-1 1z" fill="#8d6e63"/></g><g><path d="m6 22c-.5527344 0-1-.4477539-1-1v-1c0-.5522461.4472656-1 1-1s1 .4477539 1 1v1c0 .5522461-.4472656 1-1 1z" fill="#8d6e63"/></g><path d="m13 12h-4c-1.1025391 0-2 .8969727-2 2v3c0 .5522461.4472656 1 1 1h6c.5527344 0 1-.4477539 1-1v-3c0-1.1030273-.8974609-2-2-2z" fill="#ffca28"/><path d="m17 21v-3c0-1.1030273-.8974609-2-2-2h-8c-1.1025391 0-2 .8969727-2 2v3z" fill="#42a5f5"/></g></g><path d="m31 5v22c0 2.2099609-1.7900391 4-4 4h-11v-30h11c2.2099609 0 4 1.7900391 4 4z" opacity=".1"/></g></g></svg>