<svg id="Layer_1" enable-background="new 0 0 50 50" height="512" viewBox="0 0 50 50" width="512" xmlns="http://www.w3.org/2000/svg"><g><g><g><g><g enable-background="new"><g><path d="m2.7610466 15.5560732v20.8099775l.8867515.5153237v-20.8099766z" fill="#febb61"/></g><g><path d="m3.6477981 16.0713978v20.8099766l24.3243146-14.044508v-20.8099785z" fill="#efa143"/></g></g></g><g><g enable-background="new"><g><path d="m47.2386971 12.1231661v20.8099775l-.8867493.5153237v-20.8099776z" fill="#efa143"/></g><g><path d="m46.3519478 12.6384897v20.8099776l-18.3798351-10.6116009v-20.8099785z" fill="#febb61"/></g><g><path d="m47.238945 12.1263437-.8830299.5138846-18.3835545-10.6124575-24.3279846 14.0453646-.8830814-.5138855 25.211066-14.5592499z" fill="#ffdd94"/></g></g></g></g><g><g enable-background="new"><g><path d="m47.2386971 32.9331436v1.5070229l-25.2110653 14.5598335v-1.5070229z" fill="#d3dbea"/></g><g><path d="m22.0276318 47.4929771v1.5070229l-19.2665852-11.1269264v-1.5070229z" fill="#e3e7f0"/></g><g><path d="m46.3519478 33.4484673-24.324316 14.0445098-18.3798337-10.6116027 24.3243146-14.044508z" fill="#fff"/></g></g></g></g><g><path d="m9.3738747 17.8117867v8.0755519l12.8721599-7.4322013v-8.0755511z" fill="#4c5671"/></g><path d="m21.3592834 17.9398136-11.9854087 6.9237442v1.0237808l12.8721599-7.4322013z" fill="#ffdd94"/><g><path d="m21.3592834 10.8915834v7.0482302l.8867512.5153237v-8.0755511z" fill="#febb61"/></g><path d="m41.6391258 13.8730459-9.5881691-5.5358953c-.1301174-.075058-.2485695-.0821762-.3341637-.0323524l-.4669933.2712784c.0855942-.0496616.2040462-.0425434.3341656.0325146l9.5881691 5.5357332c.2601776.150279.468895.5118227.4680443.8107624l-.0174904 6.1687174c-.0004234.1484985-.052494.2528362-.136692.3016891l.4669952-.2714405c.084198-.0488529.1362648-.1531906.1366882-.3016891l.0174942-6.1687174c.0008469-.2989398-.2078895-.6604835-.4680481-.8106004z" fill="#4c5671"/><path d="m41.1721382 14.1443472c.2601662.1502075.4688873.5117579.4680405.8106937l-.0174904 6.1687346c-.0008469.2989349-.2109299.4186897-.4710999.2684822l-9.5881767-5.535738c-.2580509-.1489859-.4688873-.5117579-.4680386-.8106937l.0174885-6.1687346c.0008469-.2989359.213047-.4174681.4710979-.2684813z" fill="#373f51"/><g><g><path d="m41.1521378 20.8269577-.0004921.1726112-.4082299-.2356929.0004883-.1726113z" fill="#e3e7f0"/></g><g><path d="m39.9570541 20.1369781-.0004882.1726094-.4082337-.235693.0004883-.1726093z" fill="#e3e7f0"/></g><g><path d="m41.1695557 14.6826191-.0166893 5.8866768-9.5860539-5.5345116.0166874-5.8866768z" fill="#7bb1ff"/></g><g><path d="m40.5556526 20.4825783-.0004883.1726112-.4103469-.2369156.0004882-.1726093z" fill="#e3e7f0"/></g></g><g><g><g><g><g><g enable-background="new"><path d="m9.0533457 30.9293327 2.6639547 1.5481377c.2808599.1632271.7387705.1622887 1.0215101-.0009384l.4160671-.2403297c.1426773-.0823784.2141256-.1907272.2138319-.2988415l.0016603 3.9659367c.000308.1081123-.0711403.2164612-.2138186.2988396l-.4160662.2402115c-.2827406.1632271-.7406654.1641693-1.0215254.0009422l-2.6639393-1.5481378c-.1391811-.0808525-.208662-.1867332-.2089558-.2929649l-.0016747-3.9658184c.0003091.1061153.0697747.2121124.2089559.292963z" fill="#7c5140"/></g></g><g><g enable-background="new"><path d="m23.1116619 22.8137989 2.6639557 1.5481377c.280859.163229.7387695.1622887 1.0215111-.0009384l.4160652-.2403316c.1426773-.0823784.2141266-.1907253.2138329-.2988396l.0016594 3.9659367c.000309.1081123-.0711403.2164612-.2138176.2988396l-.4160671.2402134c-.2827396.1632271-.7406654.1641674-1.0215244.0009403l-2.6639404-1.5481396c-.1391811-.0808487-.208662-.1867294-.2089558-.292963l-.0016747-3.9658184c.0003089.1061152.0697746.2121142.2089557.2929629z" fill="#7c5140"/></g></g></g><g><g enable-background="new"><path d="m8.4789829 30.8392239 3.2983246 1.9167995c.3477411.202095.9146948.2009315 1.2647638-.0011673l14.7459917-8.5136604c.1766529-.1019955.2651176-.236145.2647533-.3700027l.0020542.7288017c.0003834.1338596-.0880795.2680092-.2647343.3700027l-14.7459917 8.5135155c-.350069.2020988-.9170408.2032623-1.264782.0011635l-3.2983065-1.9167957c-.1723251-.1001034-.2583504-.2311974-.2587147-.3627281l-.0020733-.7286568c.0003827.1313857.0863898.2626247.2587149.3627281z" fill="#5faf5f"/><g><path d="m8.4849977 30.1065521c-.3500624.2021084-.3538465.5305157-.0060072.7326565l3.2983131 1.916769c.3477364.2020836.9147072.2009659 1.2647696-.0011444l14.7459937-8.5136032c.3500614-.2021084.3538456-.5305157.0061092-.7325974l-3.2983131-1.9167709c-.3478374-.2021408-.9148083-.2010231-1.2648716.0010872z" fill="#96d696"/></g></g></g></g></g><g><g><g><g enable-background="new"><path d="m13.6978779 33.1089211 2.3957405-1.3831635c.1119919-.0646496.2134037-.0706615.2866211-.0281162l.5748863.3340244c-.0732155-.0425434-.1746292-.0364399-.2866096.0282097l-2.3957396 1.3831635c-.2225275.1284676-.4021282.4395065-.401412.6951447l.0113182 3.9911537c.0003586.1269875.0451574.2163315.1174374.2583199l-.5748978-.3340263c-.0722685-.0420837-.1170673-.131424-.1174259-.2584114l-.0113182-3.9910622c-.0007286-.2557298.1788845-.5667688.4013996-.6952363z" fill="#ed5d71"/><path d="m12.9263506 32.6606407 2.3957396-1.3831635c.1119919-.0646477.2134047-.0706596.2866211-.0281162l.6683884.3883533c-.0732174-.0425453-.1746311-.0364418-.2866106.0282078l-2.3957396 1.3831654c-.2225275.1284676-.4021282.4395065-.4014111.6951447l.0113182 3.9911499c.0003586.1269875.0451574.2163315.1174374.2583199l-.6683998-.3883514c-.0722675-.0420799-.1170664-.131424-.117425-.2584114l-.0113182-3.9910622c-.0007286-.2557298.1788835-.5667687.4013996-.6952363z" fill="#ed5d71"/><g><path d="m14.2727718 33.4430313c-.2225189.1284714-.4021273.439537-.4014025.6951942l.0113153 3.9910812c.0007248.2557335.1815062.3587303.4040251.2302589l2.3957396-1.3831825c.2225227-.1284752.402132-.439537.4014072-.6952705l-.0113163-3.9910851c-.0007248-.2556572-.1815052-.3586521-.4040279-.2301788z" fill="#e34454"/></g></g></g><path d="m13.594738 33.048996 2.3957396-1.3831654c.1119909-.0646496.2134047-.0706615.286622-.0281162l.1031399.059927c-.0732174-.0425453-.1746292-.0364399-.2866096.0282097l-2.3957405 1.3831654c-.2225266.1284637-.4021273.4395027-.4014111.6951408l.0113182 3.9911537c.0003586.1269875.0451574.2163315.1174374.2583199l-.1031523-.0599289c-.0722675-.0420799-.1170664-.131424-.117425-.2584114l-.0113182-3.9910583c-.0007286-.2557336.1788835-.5667726.4013996-.6952363z" fill="#e34454"/></g><g><g><g enable-background="new"><g><path d="m14.0592556 31.3282757-.1675406-.0973644-.1123123.0648441.1675415.0973644z" fill="#b4bed7"/></g></g><g enable-background="new"><g><path d="m14.9385319 30.8206253-.1675415-.0973644-.1133232.0654278.1675405.0973644z" fill="#b4bed7"/></g></g></g><g><path d="m13.8377695 32.36026c-.0903387.0521584-.0914516.1367302-.0010548.1892662.0891104.0517845.2357473.0517769.326086-.0003777.0903406-.0521584.090827-.1370964.0017176-.1888809-.0903968-.0525322-.2364082-.0521659-.3267488-.0000076z" fill="#d3374e"/></g><g><path d="m14.7250013 31.8599548c-.0903378.0521564-.0914507.1367321-.0010548.1892624.0891104.0517883.2357483.0517807.326086-.0003738.0903406-.0521584.090827-.1370964.0017176-.1888809-.0903968-.0525341-.2364082-.052166-.3267488-.0000077z" fill="#d3374e"/></g><path d="m14.027977 31.3576355.1125221-.0649242.0031624 1.1426144c0 .0221329-.0142574.042717-.0412054.0585785-.0554628.0317268-.1457958.0317268-.2012596 0-.026948-.0158615-.0412054-.0364456-.0412054-.0570297v-1.1758881z" fill="#373f51"/><path d="m14.9059372 30.8505535.1141081-.0650005.0015869 1.1426163c0 .0222073-.012681.0427914-.0412054.0586548-.0554733.0316505-.1458063.0316505-.1996832 0-.0285244-.0158634-.0412054-.0364475-.0412054-.0571079l-.0015869-1.1758881z" fill="#373f51"/><g><g enable-background="new"><g><path d="m13.8029413 31.0317001v.2610111l.0015764.0015488v.0586548c0 .0284767.0190268.0570297.0570593.0792389.076066.0443401.2012596.0443401.2773352 0 .0396194-.0222092.0586357-.0523109.0586357-.080864l-.001586-.3529415.4865265-.2804298v.129385c0 .0285549.0190163.0571079.0570498.0792389.076066.0444183.2012691.0444183.2773352 0 .0396194-.022131.0586357-.0522327.0586357-.0807858l-.0015869-.3544903c0-.0713444-.0253515-.1220303-.0665569-.1442375-.0015869-.0031738-.0047493-.0031738-.0079222-.0047207l-.1584778-.0934772c-.0412054-.0238323-.0982552-.0206604-.1600628.0157852l-.6529255.3771572c-.1251936.0713463-.2250357.2456875-.2250357.3899269z" fill="#5793fb"/></g></g></g></g></g><g><g><g><g><g enable-background="new"><path d="m18.3820286 36.3505707 2.6639538 1.5481377c.2808609.1632271.7387714.1622887 1.0215111-.0009384l.4160671-.2403297c.1426773-.0823784.2141266-.1907272.2138329-.2988396l.0016594 3.9659348c.000309.1081123-.0711403.2164612-.2138176.2988396l-.4160671.2402115c-.2827396.1632271-.7406654.1641693-1.0215244.0009422l-2.6639404-1.5481377c-.1391811-.0808525-.208662-.1867332-.2089558-.2929649l-.0016747-3.9658203c.0003089.1061171.0697745.2121161.2089557.2929648z" fill="#7c5140"/></g></g><g><g enable-background="new"><path d="m32.4403458 28.2350368 2.6639557 1.5481396c.2808571.1632271.7387695.1622868 1.0215111-.0009403l.4160652-.2403316c.1426773-.0823765.2141266-.1907253.2138329-.2988396l.0016594 3.9659348c.000309.1081161-.0711403.216465-.2138176.2988434l-.4160652.2402115c-.2827415.1632271-.7406654.1641693-1.0215263.0009384l-2.6639404-1.5481377c-.139183-.0808487-.2086639-.1867294-.2089577-.292963l-.0016708-3.9658184c.000305.1061153.0697706.2121143.2089537.2929629z" fill="#7c5140"/></g></g></g><g><g enable-background="new"><path d="m17.8076649 36.2604637 3.2983246 1.9167976c.3477421.202095.9146957.2009315 1.2647648-.0011673l14.7459908-8.5136604c.1766548-.1019936.2651176-.236145.2647552-.3700027l.0020523.7288017c.0003853.1338596-.0880775.2680092-.2647324.3700027l-14.7459927 8.5135155c-.350069.2020988-.9170399.2032623-1.264782.0011673l-3.2983055-1.9167976c-.1723251-.1001053-.2583523-.2311974-.2587147-.3627281l-.0020733-.7286568c.0003816.131382.0863896.2626228.2587129.3627281z" fill="#5faf5f"/><g><path d="m17.8136806 35.5277901c-.3500614.2021065-.3538456.5305138-.0060081.7326584l3.298315 1.9167671c.3477364.2020836.9147053.2009659 1.2647686-.0011444l14.7459927-8.5136032c.3500633-.2021084.3538475-.5305138.0061111-.7325974l-3.2983131-1.916769c-.3478394-.2021427-.9148102-.201025-1.2648735.0010853z" fill="#96d696"/></g></g></g></g></g><g><g><g><g><g enable-background="new"><path d="m30.5313892 32.1518021 3.1019802-1.816124c.0701942-.0411015.1050377-.0946693.104557-.1479321l-.003727-.4182091c.0004768.0532627-.0344162.106802-.1046066.1478958l-3.1019802 1.8161259c-.1394749.081665-.3654099.0830498-.5049458.0031033l-2.1784763-1.2482262c-.069313-.0397148-.1042175-.0920086-.1046829-.1445866l.0037251.4182148c.0005207.0526009.0354252.1048946.1047382.1446075l2.1784267 1.2481976c.1395837.0799828.3655187.0785905.5049916-.0030669z" fill="#febb61"/><path d="m30.536396 32.7130585 3.1019783-1.816124c.0701942-.0411015.1050377-.0946674.1045609-.1479301l-.0043373-.486227c.0004768.0532627-.0344162.1068001-.1046066.1478958l-3.1019783 1.8161259c-.1394768.081665-.3654099.0830498-.5049477.0031013l-2.1784763-1.2482262c-.069313-.0397129-.1042175-.0920067-.1046829-.1445847l.0043335.4862328c.0005188.0526009.0354233.1048946.1047363.1446075l2.1784267 1.2481995c.1395836.0799789.3655205.0785904.5049934-.0030708z" fill="#febb61"/><g><path d="m30.5276165 31.7335644c-.1394749.0816593-.3654251.0830383-.5049706.0030823l-2.1784382-1.2482033c-.1395874-.0799809-.1396408-.2108555-.000164-.2925148l3.1019878-1.8161201c.1394787-.0816612.3654289-.0830402.5050163-.0030613l2.1784382 1.2482033c.1395454.079958.1395988.2108326.0001221.2924938z" fill="#ffdd94"/></g></g></g><path d="m30.5320587 32.2268333 3.1019821-1.8161259c.0701904-.0411015.1050339-.0946674.104557-.1479301l-.0006714-.0750313c.0004807.0532627-.0344162.106802-.1046028.1478958l-3.1019802 1.8161259c-.1394768.081665-.3654099.0830498-.5049458.0031013l-2.1784763-1.2482262c-.069313-.0397129-.1042194-.0920067-.1046848-.1445847l.0006657.075037c.0005207.0526009.0354252.1048946.1047382.1446075l2.1784248 1.2481976c.1395837.0799829.3655206.0785906.5049935-.0030669z" fill="#efa143"/></g></g><path d="m31.4649467 31.4712639c.0305157-.0184517.0583706-.0198708.0777988-.0085163l.2397842.1376801.5188694-.3037453-.0881767-.0503883c-.0194283-.0106449-.0314941-.0347748-.0318489-.0695496-.0007095-.0688381.0478172-.1540012.1075172-.188776.0304298-.0184517.0582848-.0198708.0778008-.0085163l.2407608.1383896c.0486145.0276775.0732765.0645809.0724754.1014843.0015106.0021286.000267.0042591.0000877.0070972l.0023079.1440659c.000267.0369034-.0240402.0752277-.0728302.1029053l-.6492748.3796806c-.0971394.0574856-.2545109.0581951-.3528023.0021305l-.1777763-.1007767-.0004444-.0021286-.0399189-.0227089c-.0194283-.0106468-.0314922-.0347748-.0318489-.0695496-.0007094-.06884.0478154-.1540031.1075192-.1887779z" fill="#373f51"/></g></g></g></svg>